<svg id="Слой_1" data-name="Слой 1" xmlns="http://www.w3.org/2000/svg" viewBox="0 0 138 128.5"><defs><style>.cls-1{fill:#fff;}</style></defs><title>logo-foot</title><path class="cls-1" d="M45.1,108c-2.35,4.44-4.69,8.89-7.06,13.32-.27.51-.32,1.28-1.12,1.35s-1-.8-1.31-1.34c-2.4-4.47-4.77-9-7.36-13.88a127.21,127.21,0,0,0-1.66,13.24c-.15,2.15-.1,2.15-2.24,1.94L27,104.54c.08-.56-.19-1.31.79-1.42s1.3.33,1.68,1.07c2.38,4.56,4.81,9.1,7.23,13.65.2.38.46.73.8,1.29l6.21-11.67c.61-1.15,1.22-2.3,1.82-3.45.27-.53.57-1,1.28-.87s.59.71.66,1.17l2,14.46c.09.67.2,1.34.33,2,.43,2.06.41,2.06-1.76,1.94-.7,0-.94-.2-1-1A106.48,106.48,0,0,0,45.1,108Z"/><path class="cls-1" d="M102.59,23.27a7.73,7.73,0,0,1,2,2.49c-.21.93-1,.81-1.62.81-6.29,0-12.57.08-18.86-.08-3.55-.09-7.14.26-10.69.07-5.11-.28-10.21.06-15.31,0s-10.19,0-15.28.06c-.8,0-1.88.33-2.21-.93a14.26,14.26,0,0,1,2.75-2.36,98.2,98.2,0,0,0,10.69.18c9.22,0,18.45.09,27.67,0C88.68,23.41,95.64,23.82,102.59,23.27Z"/><path class="cls-1" d="M40.61,25.64c.4.58,1,.41,1.55.41h60.65c.6,0,1.26.22,1.77-.3a3.81,3.81,0,0,1,1.07,2,2.85,2.85,0,0,1-2.24.53c-6.28,0-12.57.13-18.85-.06-2.2-.07-4.37.16-6.56.06-4.72-.22-9.43.08-14.15,0-7.63-.13-15.26.11-22.9,0-.84,0-2,.43-2.38-.92A7,7,0,0,1,40.61,25.64Z"/><path class="cls-1" d="M38.53,27.35c.46.62,1.14.4,1.73.4,5.9,0,11.79.12,17.68,0,2-.06,3.94.11,5.91.09,5-.07,10.06,0,15.09,0H105.6a1.06,1.06,0,0,1,.35,1c-.22,1.16-1.2.88-1.89.88q-11.29.06-22.58,0h-16c-1.36,0-2.71-.09-4.07-.19-7.24.42-14.48.15-21.72.18-1,0-2.27.36-2.54-1.23A3.81,3.81,0,0,1,38.53,27.35Z"/><path class="cls-1" d="M101.16,21.7a5.34,5.34,0,0,0-1.84-.23c-3,0-6,.07-9,0-1.62,0-3.24-.46-4.85.12a1.78,1.78,0,0,0-.62.27,1.8,1.8,0,0,1-1.46,1.24l-.13,0a2,2,0,0,1-.23,0h-.12A1.84,1.84,0,0,1,81,21.62a.68.68,0,0,0-.63.12,5.56,5.56,0,0,1-2.82.41c-6.52,0-13,0-19.52,0-1.26,0-2.5-.58-3.68-.37a43.53,43.53,0,0,1-9.64.19l-1.38,1.31c.18,1,1,.72,1.62.72,3.67-.11,7.35-.2,11-.11,7.16.18,14.31,0,21.47.1,2.87,0,5.77-.18,8.62-.09,5.09.12,10.17,0,15.25.12.58,0,1.18.06,1.27-.75A4.43,4.43,0,0,0,101.16,21.7Z"/><path class="cls-1" d="M36.32,79.15a5.08,5.08,0,0,1-5.19-5q0-.16,0-.33a5.35,5.35,0,0,1,5.14-5.26,5.44,5.44,0,0,1,5.4,5.4,5.12,5.12,0,0,1-5.08,5.16Z"/><path class="cls-1" d="M96.43,17.32A7.34,7.34,0,0,1,92.67,17a1.28,1.28,0,0,0-1.14,0,8,8,0,0,1-3.39.44H73.61a9.17,9.17,0,0,1-2.68-.24,1.19,1.19,0,0,0-.45-.06,2.42,2.42,0,0,1-4.1.3,1.4,1.4,0,0,0-.68,0c-5.19-.07-10.38.21-15.57-.17l-2.34,2.11c.29,1,1.14.74,1.82.79.85.06,1.68-.14,2.54-.14,9.61.34,19.23.17,28.84.09l.36-.13a1.81,1.81,0,0,1,1.55-.78H83a1.81,1.81,0,0,1,1.69,1l.38.2A9.41,9.41,0,0,0,89,20.15a3.4,3.4,0,0,1,2,0,19.73,19.73,0,0,0,6.21.18c.63,0,1.37-.19,1.37-1.13A7.52,7.52,0,0,0,96.43,17.32Z"/><path class="cls-1" d="M104.92,107.76h-.08a7.73,7.73,0,0,0-8,7.46q0,.16,0,.31a7.58,7.58,0,0,0,7.68,7.48c4.71,0,7.93-3,8-7.4q0-.3,0-.59A7.44,7.44,0,0,0,104.92,107.76ZM110.54,118a4.55,4.55,0,0,1-1.24,2.13,5.74,5.74,0,0,1-1.4,1.21l-.11.05a5.06,5.06,0,0,1-5.62.19l-.25-.12a7,7,0,0,1-3.25-6.57,7.49,7.49,0,0,1,1.06-3.64l.05-.07h0a5,5,0,0,1,2-2.39,4.15,4.15,0,0,1,.91-.38,5.29,5.29,0,0,1,3.18-.19,4.24,4.24,0,0,1,.81.32,6.67,6.67,0,0,1,3.26,3c0,.07.06.15.09.23A8.86,8.86,0,0,1,110.54,118Z"/><path class="cls-1" d="M91,116.1c2.49-1.83,3.11-3.27,2.49-5.2S91.33,108,88.33,108H83.79a73.37,73.37,0,0,1,.11,13.59c0,.37-.4,1,.34,1.07a5.16,5.16,0,0,0,2.33-.1c.59-.23,0-1,0-1.51.07-1,0-2,0-3,0-.49-.4-1.28.39-1.43s1.65-.31,2.23.69c.74,1.2,1.73,2.25,2.39,3.49l0,.1A3.32,3.32,0,0,0,96,122.54C93.94,120.61,92.63,118.24,91,116.1Zm-4.14-.54a1.09,1.09,0,0,1-1.24-1.24,17.35,17.35,0,0,0,.18-4.28,1.14,1.14,0,0,1,0-.58.76.76,0,0,1,.56-.71,1,1,0,0,1,.36-.1c2.25-.15,5.6.6,5.57,3.46C92.27,114.7,89,115.91,86.87,115.56Z"/><path class="cls-1" d="M60.41,37.17a8.26,8.26,0,0,0-.34-3,1.38,1.38,0,0,0-.52.88,1.68,1.68,0,0,1-1.69,1.58c-2.73,0-5.48.38-8.2-.25a5.22,5.22,0,0,1-.85.32l-.23.16-.14.08-.22.1-.25.08-.19,0a2.61,2.61,0,0,1-1,0l-.23-.06-.2-.06L46,36.9l-.08,0a2.15,2.15,0,0,1-.29-.22h0a5.23,5.23,0,0,1-.64-.26c-.09-.07-.22,0-.33,0-2.6.6-5.24.15-7.86.33-1.41.1-2.51-.19-3.06-1.63a6.35,6.35,0,0,0-.22,3.17c0,1.38.71,1.86,2,1.86q11.25.08,22.5,0C60.41,40.09,60.73,39.53,60.41,37.17Z"/><path class="cls-1" d="M81.35,111.22A4.12,4.12,0,0,0,77.27,108c-1.91-.07-3.82,0-5.74,0a97,97,0,0,1,.13,13.58c0,.35-.45.9.18,1a5.61,5.61,0,0,0,2.35,0c.76-.22.15-1,.15-1.45a22.17,22.17,0,0,0-.12-2.87c-.08-.88.22-1.23,1.13-1.16a6.29,6.29,0,0,0,4-1.1A4.43,4.43,0,0,0,81.35,111.22ZM79.61,113c-.58,2.57-3.64,3.47-6,3.08a1,1,0,0,1-.73-1,3.65,3.65,0,0,1,.08-.69,16.32,16.32,0,0,1,.13-1.89c0-.43,0-.83,0-1.22l0-.25a3,3,0,0,1,.07-1.35,1,1,0,0,1,1-1.1c1.61-.06,2.94-.18,4.25,1A3.51,3.51,0,0,1,79.61,113Z"/><path class="cls-1" d="M84.25,11.65a2.25,2.25,0,0,0,0-.35,3.43,3.43,0,0,0-2.71-.69c-1.91-.09-3.84.21-5.74-.23-.53-.06-1.24.25-1.31-.68A.88.88,0,0,0,74,9.55c-.59.13-1.15.4-1.74.55-.79.2-.84.63-.21,1.14.07.06,0,.24.12.06s0,.25-.11.06c-.56-.13-.69-.84-1.26-1-.32,0-.46.3-.64.52a15.55,15.55,0,0,0-2.63-.09c-1.5-.32-3,.13-4.5-.4-.4-.28-.87.61-1.24-.08a3,3,0,0,0-2-.21c-.32,0-.7.12-.77.51s.23.58.55.73h.11c.13-.18,0,.23-.12.06-.81-.11-.8-1.2-1.58-1.36l-.3,0c-.76.45-1.83.56-1.93,1.81l-.42.65c-.34.83.3,1,.83,1.09a10.46,10.46,0,0,0,2.19.12c2.81.09,5.66-.18,8.45.17a2.35,2.35,0,0,1,1.54-.53A2.32,2.32,0,0,1,70,14h9.69a10.7,10.7,0,0,0,3.67-.26,2.25,2.25,0,0,0,.26-.26A1.56,1.56,0,0,1,84.25,11.65Z"/><path class="cls-1" d="M61.75,29.13h42.34c.64,0,1.37.26,1.91-.37a1.72,1.72,0,0,1,.33,1.07l-2.76,1a11,11,0,0,1-3.52.14c-5.88,0-11.77.12-17.65,0-5.35-.13-10.7.22-16-.09-1.44-.09-2.9.23-4.31-.32l-.67-.6C61.12,29.48,61.53,29.33,61.75,29.13Z"/><path class="cls-1" d="M81.52,19.73s0-.09,0-.14H49.61c-.59,0-1.25.23-1.78-.28a6.38,6.38,0,0,0-1.77,1.57c.32,1.14,1.29.92,2.06.92,3,.16,6,0,9,0,6.94.08,13.88,0,20.82,0a7.5,7.5,0,0,0,2.52-.21,1.72,1.72,0,0,0,.57-.38A2.1,2.1,0,0,1,81.52,19.73Z"/><path class="cls-1" d="M57.67,43.75l.36,2a1.62,1.62,0,0,1-1.72.84c-6.45-.06-12.9.1-19.36,0a3,3,0,0,1-2.32-1.19l-.34-1.7a2.84,2.84,0,0,1,2.24-.49H55.4A3.12,3.12,0,0,1,57.67,43.75Z"/><path class="cls-1" d="M33.6,38.34c.23,1,.75,1.38,1.87,1.36,7.46-.07,14.91,0,22.37,0,2.34,0,2.51-.18,2.57-2.45,1.18,2.37-.45,3.44-2.09,4.49a1.6,1.6,0,0,1-1.08.42c-7.09.1-14.18.15-21.27.09-.78,0-1.61,0-2.06-.84A10.63,10.63,0,0,1,33.6,38.34Z"/><path class="cls-1" d="M58.72,50.61a6.83,6.83,0,0,1-1,2.75,109.58,109.58,0,0,0-14.07-.1c-2.14.09-4.29-.33-6.43.07a8.23,8.23,0,0,1-1-2.78c.23-1,1.11-.84,1.77-.84,6.22,0,12.44-.09,18.67,0C57.44,49.71,58.42,49.46,58.72,50.61Z"/><path class="cls-1" d="M56.41,30H37.9a4,4,0,0,0-2.48.51,3.54,3.54,0,0,0-1,2.06,2.76,2.76,0,0,0,2.23.54c2.68.11,5.34-.09,8,.11a6.51,6.51,0,0,1,.92-.29h0a2.16,2.16,0,0,1,.33-.28l0,0a2.16,2.16,0,0,1,.36-.19l.15,0a2.31,2.31,0,0,1,.3-.09,2.7,2.7,0,0,1,.54-.05,2.77,2.77,0,0,1,.57.06l.09,0a2.35,2.35,0,0,1,.41.14l0,0a2.17,2.17,0,0,1,.38.24h0a2.19,2.19,0,0,1,.34.33,6.51,6.51,0,0,1,.8.31c2.19.11,4.38,0,6.57,0,.8,0,1.78,0,1.87-1.18l.44-1.65C58.13,29.82,57.24,30,56.41,30Z"/><path class="cls-1" d="M34.63,45.45a5.32,5.32,0,0,0,3.22.69c4.28-.19,8.55.12,12.84-.19a45.63,45.63,0,0,1,5.37.18,3.29,3.29,0,0,0,2-.35c.44.49.85,1,1.33,1.48a1.05,1.05,0,0,1,.13,1.48l-.13.13c-6.46-.36-12.92,0-19.38-.18-1.5,0-3.07.29-4.5-.49A10.73,10.73,0,0,1,34.63,45.45Z"/><path class="cls-1" d="M33.91,41.38a3.33,3.33,0,0,0,2,.33c5.65,0,11.29.12,16.93-.07a37.81,37.81,0,0,1,5.51.07l-.65,2H34.3A7.31,7.31,0,0,1,33.91,41.38Z"/><path class="cls-1" d="M35.53,48.2H58.1c.55,0,1.19-.14,1.31.69a3.94,3.94,0,0,1-.65,1.74c-.36-.51-.9-.39-1.4-.39H37.53c-.44,0-.92-.09-1.25.34A5.64,5.64,0,0,1,35.53,48.2Z"/><path class="cls-1" d="M46.07,20.91c1.12.83,2.4.36,3.6.37H80.81l.09.11-.06.13c-.1,1-.75,1.12-1.57,1.12-7.58,0-15.17.19-22.75-.1-3.22-.12-6.41.48-9.61.11-.79-.09-1.6,0-2.17-.7Z"/><path class="cls-1" d="M74.33,9.74H74c-.83-.35-1.58-1-2.59-.7-.57,0-1.12-.28-1.7-.13a1.68,1.68,0,0,1-.42,0c-.36,0-.55-.36-.84-.51-.4.13-.58.58-1,.64a21,21,0,0,1-3.62.12,2.08,2.08,0,0,0-2,.59,1.6,1.6,0,0,1-1.76-1.38,14.61,14.61,0,0,1,3.41-2.31c5.66.08,11.32.17,17,0a13.61,13.61,0,0,1,3.41,2c.8,1.28-.41,1.12-.94,1.16-2.14.14-4.29.07-6.44,0A2.83,2.83,0,0,0,74.33,9.74Z"/><path class="cls-1" d="M57,55.34,56.4,57a3.55,3.55,0,0,1-2.27.47h-12a19.4,19.4,0,0,0-3.19.21A8.9,8.9,0,0,1,37.86,55c.38-.83,1.15-.85,1.88-.84,5.08,0,10.15-.11,15.22,0C55.8,54.17,56.87,54,57,55.34Z"/><path class="cls-1" d="M94.78,16.22a2.56,2.56,0,0,0-1.44-.4c-6.88-.25-13.75,0-20.62-.09a4.58,4.58,0,0,0-1.67.16,2.21,2.21,0,0,0-.31.19,2.75,2.75,0,0,1-.24,1l.07.14c.19,1,1,.72,1.63.72H89.86c.55,0,1.18.13,1.61-.33s.63-.17,1.11,0c1.21.44,2.65.83,3.85-.27Z"/><path class="cls-1" d="M57,55.34c-.31-.71-.94-.73-1.58-.7-3.83.17-7.66-.18-11.5.19a14.68,14.68,0,0,1-3.39-.15,3.79,3.79,0,0,0-2.64.33,3,3,0,0,1-.63-1.68c1-1.4,2.51-.63,3.77-.68s2.64.05,4,0c3.67-.14,7.35,0,11-.05.7,0,1.38,0,1.72.77A4.22,4.22,0,0,1,57,55.34Z"/><path class="cls-1" d="M80.45,6c-.09.6-.53.63-1,.63H64.77a1.33,1.33,0,0,1-1.3-.59C69.12,2.36,74.78,2.78,80.45,6Z"/><path class="cls-1" d="M53.63,120.56a55.88,55.88,0,0,0,0-11.37c-.16-1.76,1-1,1.72-1.15.92-.16,1.12.11,1.08,1.17q-.21,6.11,0,12.24c0,1.12-.17,1.36-1.19,1.29s-1.93.19-1.56-1.33A3.11,3.11,0,0,0,53.63,120.56Z"/><path class="cls-1" d="M85.66,49.83c1.5.56,1.59.92.57,2.4a.63.63,0,0,1-.43.19c-1.87.57-3.82-.42-5.69.29-.22.08-.58.08-.63-.08-.56-1.68-1.08,0-1.61,0a72.2,72.2,0,0,1-8,.12,2.43,2.43,0,0,1-1.43-.48h-.26l-1-1.73c.1-.78.76-.79,1.27-.79C74.21,49.71,79.94,49.48,85.66,49.83Z"/><path class="cls-1" d="M39,57.71c.3-.48.56-1,1.27-.91,4.88.41,9.77.11,14.65.21h1.52a8.28,8.28,0,0,1-1.05,2.8,9.61,9.61,0,0,0-2.81-.27c-3.3.16-6.6,0-9.9,0a5.76,5.76,0,0,0-2.62.53A7.42,7.42,0,0,1,39,57.71Z"/><path class="cls-1" d="M40,60.06c-.05-.71.26-1,1-1A34.18,34.18,0,0,1,46.65,59c2.41.33,4.75-.28,7.11.08.63.1,1.42-.2,1.58.8a3.92,3.92,0,0,1-.73,2,5.76,5.76,0,0,0-3.33,0c-.93.34-1.76-.27-2.66-.23a5.66,5.66,0,0,0-1.84.16c-1.18-.3-2.19-1.6-3.33-1.23s-.88,2.16-1.77,3A9.6,9.6,0,0,1,40,60.06Z"/><path class="cls-1" d="M58.8,30.52l-23.35-.07a4.66,4.66,0,0,1,1.79-2c.45,1,1.33.7,2.08.71H61.75l-.39.8A2.57,2.57,0,0,0,58.8,30.52Z"/><path class="cls-1" d="M56.34,60.77A3.92,3.92,0,0,1,57,59.06a2.9,2.9,0,0,1,2.08-.54h10.5a2.89,2.89,0,0,1,2.46.86c1.31,1.62,1.2,1.79-1.45,2.34-.75-.5-1.55-.08-2.32-.09H58.57C57.76,61.6,56.83,61.74,56.34,60.77Z"/><path class="cls-1" d="M98.55,19.22c-.22.17-.42.5-.65.5-2.45.31-4.91.61-7.33-.22-.23-.08-.38-.43-.71-.21-1.58,1-3.33.59-5,.68a1.77,1.77,0,0,0-.09.29,2.26,2.26,0,0,1,.14,1.37,1.78,1.78,0,0,0,.24.36,41,41,0,0,1,5.34,0c2.69.06,5.39,0,8.09,0,.87,0,1.8.3,2.62-.26A10.53,10.53,0,0,0,98.55,19.22Z"/><path class="cls-1" d="M90.28,45.72a7,7,0,0,1,.35-3.07,6.17,6.17,0,0,0,2.94.58H102a2.83,2.83,0,0,1,2.23.52,5.72,5.72,0,0,1-.66,2.38,2.18,2.18,0,0,1-1.57.51c-3.15,0-6.31.12-9.46-.06C91.76,46.53,90.71,46.85,90.28,45.72Z"/><path class="cls-1" d="M58.79,69.55l-2.26-2c-.35-.3-.68-.59-.57-1.12s.64-.52,1.06-.59l2-.33c2.61.1,5.23-.38,7.85,0,.89.15,1.79-.28,2.69-.1.53.1,1.35,0,1.06,1-.54.46-.23,1.43-1,1.74a29.41,29.41,0,0,1-5.71.17,7.55,7.55,0,0,0-4.81,1.14Z"/><path class="cls-1" d="M63.49,63.4h0a.5.5,0,0,1,.32-.16l.19,0h0l.27,0h0l.27,0h.1a.51.51,0,0,1,.24,0l5.74-1.41c-.22-.91-1-.6-1.52-.6H58.34a3.36,3.36,0,0,1-2-.33,5.55,5.55,0,0,0-.72,2.2c-.32.86.27,1.18.89,1.18a6.32,6.32,0,0,0,2.6,0l4.33-.74Z"/><path class="cls-1" d="M83.85,8c.32.92-.38.7-.82.7H76c-.44.48-1.17.85-.69,1.75.2,1,1,.67,1.62.67,2.43.17,4.9-.34,7.3.39l.12.06a1.52,1.52,0,0,1,.59-.12,1.36,1.36,0,0,1,1.34.91c.15,0,.3.11.45.15.89-.06,2,.51,2.51-.71A20.8,20.8,0,0,0,83.85,8Z"/><path class="cls-1" d="M45,35.49v0a2.82,2.82,0,0,1-.09-.53h0a2,2,0,0,0-.8-.74,62.29,62.29,0,0,0-9.14-.13,1.6,1.6,0,0,0-1.07.46l-.06.61c-.25,1.69.4,2.29,2.15,2.16,2.31-.13,4.63,0,7,0a2.47,2.47,0,0,0,2.17-.68,2,2,0,0,0,.1-.61A2.59,2.59,0,0,1,45,35.49Z"/><path class="cls-1" d="M92.67,14.26c-2.15.09-4.32.4-6.44-.24H86a1.38,1.38,0,0,1-1.07.46,1.46,1.46,0,0,1-.73-.18h0c-1.86.66-3.8.28-5.7.38-2.58.14-5.18-.29-7.74.27l-.16.14a2.85,2.85,0,0,1,.11,1l.11.09H94.78A4.81,4.81,0,0,0,92.67,14.26Z"/><path class="cls-1" d="M104.23,43.75H92.06c-.82,0-1.49,0-1.44-1.11l.05-.94a3.09,3.09,0,0,1,2.26-.53c3.11,0,6.22,0,9.33.12l2.65.47Z"/><path class="cls-1" d="M72,59.38a5,5,0,0,0-2.16-.32H57a3.45,3.45,0,0,1,.62-1.71,1.85,1.85,0,0,1,1.58-.83q4.9-.12,9.81,0a1.9,1.9,0,0,1,1.23.49A7.47,7.47,0,0,1,72,59.38Z"/><path class="cls-1" d="M82.11,68.33c-1.24-1.39.38-2.13.71-3.16a2.14,2.14,0,0,1,1.46-.25c3,.12,6.07,0,9.1.08.76,0,1.73-.24,2.06.89a6.58,6.58,0,0,1-2,2.39A56.91,56.91,0,0,0,82.11,68.33Z"/><path class="cls-1" d="M90.28,45.72c4.41.82,8.86.23,13.29.41a4.21,4.21,0,0,1-.61,2.06,2.71,2.71,0,0,1-1.75.51H91.9a1.9,1.9,0,0,1-1.9-.85A4.13,4.13,0,0,1,90.28,45.72Z"/><path class="cls-1" d="M96.35,63.72a3.11,3.11,0,0,1-.44-.35,2.62,2.62,0,0,1-.27-.19.46.46,0,0,1-.1-.13c-3.44-.21-6.87-.08-10.31-.08a2,2,0,0,0-1.75.83,2.6,2.6,0,0,0-.65,1.37,8.94,8.94,0,0,0,2.81.36h8.08c.59,0,1.25-.23,1.73.36l1.31-1.75a.5.5,0,0,0,0-.06A2.21,2.21,0,0,1,96.35,63.72Z"/><path class="cls-1" d="M65.93,16a1.36,1.36,0,0,0-.41-.24c-1.86-.07-3.72,0-5.57,0-2.81.06-5.63-.26-8.42.23a3.87,3.87,0,0,0-1.35,1.23c.35.8,1.06.7,1.74.7H64.63c.56,0,1.15.18,1.56-.39q0-.15.06-.3A2.74,2.74,0,0,1,65.93,16Z"/><path class="cls-1" d="M65.17,63.9a.43.43,0,0,1-.26.16c-.3.06-.6.1-.9.14a.41.41,0,0,1-.17,0l-.06,0a.42.42,0,0,1-.23,0,3.51,3.51,0,0,1-.79.32l-3.77,1c1,.21,2.08.83,2.91.57,2.46-.76,4.9.42,7.32-.19.47-.12,1.18-.26,1.36.57,1.14-1.09,1.58-2.55,2.64-4.09Z"/><path class="cls-1" d="M105.23,40.58c-1.34.35-2.51-.38-3.74-.66-2.51-.58-5-1.31-7.45-2-.71-.2-1.63-.47-.32-1.25,3.18.24,6.37,0,9.55.12a3,3,0,0,1,2.38.53Z"/><path class="cls-1" d="M90,47.84a3.45,3.45,0,0,0,2,.34h11l-.45,1.7a1.47,1.47,0,0,1-1.39.79,74.59,74.59,0,0,1-9.57-.13,2.23,2.23,0,0,1-.52-.38C91,49.24,89.53,49,90,47.84Z"/><path class="cls-1" d="M105.65,37.3H95.22c-.55,0-1.3.3-1.5-.63l5.1-2.33c1.55.62,3.18.36,4.78.43a3.15,3.15,0,0,1,2.38.49A3.48,3.48,0,0,1,105.65,37.3Z"/><path class="cls-1" d="M23.66,61.39A2.7,2.7,0,0,1,26.37,64a2.78,2.78,0,0,1-2.6,2.82A2.71,2.71,0,0,1,20.91,64a2.58,2.58,0,0,1,2.57-2.59Z"/><path class="cls-1" d="M70.24,57H59.76a4.31,4.31,0,0,0-2.14.33A8.69,8.69,0,0,1,58.43,55a2.15,2.15,0,0,1,1.24-.47,76.45,76.45,0,0,1,8.1.1,2.31,2.31,0,0,1,1.11.38A4.32,4.32,0,0,1,70.24,57Z"/><path class="cls-1" d="M71.89,57a7.93,7.93,0,0,1-1.7-2.39,2.26,2.26,0,0,1,1.86-.53c1.94,0,3.89-.1,5.82.07,1.53-.29,3-.36,4.31.78l-2.79,2A11.56,11.56,0,0,1,71.89,57Z"/><path class="cls-1" d="M78.12,73.12a3.86,3.86,0,0,1-.7,2,30.16,30.16,0,0,0-8.22,0c-.16-.85-1.46-1.37-.72-2.49a2.68,2.68,0,0,1,2.14-1.18c2,0,4.07-.07,6.1,0C77.68,71.54,78.58,71.76,78.12,73.12Z"/><path class="cls-1" d="M67.6,13.52v0a8.88,8.88,0,0,0-2.83-.37h-8c-.57,0-1.32.29-1.49-.66a9.49,9.49,0,0,0-2,2c.15,1.08,1,.91,1.7.91,3.48,0,7,.14,10.48,0l.62-.2A2.26,2.26,0,0,1,67.6,13.52Z"/><path class="cls-1" d="M57.94,80.79c1.46-.82,2.94-1.62,4.39-2.45a1,1,0,0,1,1.36.16,2.45,2.45,0,0,0,2.34.65c1.8-.6,2.67.39,3.43,1.71-.32.79-1,.8-1.71.82q-4,.09-8,0C59.08,81.65,58.31,81.61,57.94,80.79Z"/><path class="cls-1" d="M82.11,68.33a2,2,0,0,1,1.77-.77h8.25c.56,0,1.17-.09,1.27.72a7.43,7.43,0,0,1-2.39,2,21,21,0,0,0-6.85.08Z"/><path class="cls-1" d="M44.89,34.38a2.64,2.64,0,0,1,.4-1.12h0c0-.11,0-.22,0-.34a4.1,4.1,0,0,0-2.13-.39H34.48a4,4,0,0,0-.56,2.06H44.53a1.39,1.39,0,0,0,.36-.21Z"/><path class="cls-1" d="M78.41,54.64H70.18a8.45,8.45,0,0,1-1.71-2.37h9.94A1.77,1.77,0,0,1,78.41,54.64Z"/><path class="cls-1" d="M53.92,83l.36-.4,1-.34c2.9-.3,5.8,0,8.7-.08.64,0,1.37.16,1.48,1l-2.71,1.07c-.36.47-.92.14-1.35.35-2.27.35-4.54.71-6.79-.11-.56.15-.81-.21-1-.63v-.27C53.37,83.19,53.66,83.07,53.92,83Z"/><path class="cls-1" d="M76.71,63.15c-1-1.45-.57-2.51,1.6-3.79a7.94,7.94,0,0,1,4.41-.42c.57.06,1.48,0,1.14,1.13l-1.33,2.74C80.6,63.26,78.62,62.68,76.71,63.15Z"/><path class="cls-1" d="M44.68,70c2.17-1.51,4.77-1.93,7.23-2.64.8-.23,1.33.66,1.32,1.59q0,5.27-.07,10.53c-1.08-.53-.61-1.54-.73-2.37a19.82,19.82,0,0,1,0-2.67v-2.3c0-1-.59-1.33-1.49-1.32a40.41,40.41,0,0,0-5.51.18Z"/><path class="cls-1" d="M106,35.25h-5.66c-.7,0-1.37,0-1.5-.92L106.13,31c.4,1,.06,1.81.23,2.62Z"/><path class="cls-1" d="M68.88,55H58.43a8.68,8.68,0,0,1,.93-2.38,41.25,41.25,0,0,1,7.77,0l.74.63Z"/><path class="cls-1" d="M65.48,83.16a2.77,2.77,0,0,0-2.36-.64c-2.61.06-5.24.35-7.82-.34a10.55,10.55,0,0,1,2.64-1.4,3.66,3.66,0,0,0,2.29.37c3.08-.17,6.18.38,9.23-.31,1.13,1-.52.81-.59,1.29-.38.67-1.17.38-1.7.71C66.58,82.81,66.1,83.36,65.48,83.16Z"/><path class="cls-1" d="M50,64.8l2.4,1.08-8.3,2.78-1.34-2.81c-.33-1.12.6-1.09,1.17-1.11A30.17,30.17,0,0,1,50,64.8Z"/><path class="cls-1" d="M59,69.51A1.92,1.92,0,0,1,60.85,68c2.9,0,5.82-.44,8.7.2-.48.5-.31,1.36-1,1.76a2.53,2.53,0,0,1-1.73.5A61.08,61.08,0,0,1,60,70.3Z"/><path class="cls-1" d="M78.12,73.12c0-.71-.22-1.16-1.07-1.14h-6.9c-.7,0-1.11.5-1.68.68a6.74,6.74,0,0,1,1.41-2.37c1.4-1,3-.82,4.58-.83a26.36,26.36,0,0,1,3.38.05c.57.07,1.49-.09,1.25,1C78.63,71.34,78.85,72.41,78.12,73.12Z"/><path class="cls-1" d="M66,15.11a.68.68,0,0,0-.11-.24c-3.66,0-7.33,0-11,0-.59,0-1.27.22-1.73-.4L51.53,16a2.52,2.52,0,0,0,.79.24h12.3a4.16,4.16,0,0,0,1.11-.33l.06,0a.68.68,0,0,0,.16-.17A2.81,2.81,0,0,1,66,15.11Z"/><path class="cls-1" d="M76.77,76.84c-.33.86-.07,2.07-1.37,2.38-1.41,0-2.81.13-4.22.08a3.39,3.39,0,0,1-1.93-.53c-1.39-.76-.24-1.58,0-2.37,2.31-1,4.69-.56,7.06-.3a.57.57,0,0,1,.46.74Z"/><path class="cls-1" d="M60,70.33c.7-.71,1.58-.35,2.38-.37,2.06-.05,4.12,0,6.18,0-.46.83-.73,2.09-1.42,2.39-1.09.47-2.44.2-3.65.74-.5.22-1.09-.66-1.6-1.1Z"/><path class="cls-1" d="M79.09,70.53a.62.62,0,0,0-.66-.58h0c-2.5.22-5-.52-7.51.43-.27.11-.65-.07-1-.12a4.55,4.55,0,0,1,1-1.71,15,15,0,0,1,6.66-1.14,6.93,6.93,0,0,1,2,.44C80.19,68.89,79.53,69.69,79.09,70.53Z"/><path class="cls-1" d="M83.72,52.17c-.5.32-.85.42-1.31,0l-.05-.06a1.41,1.41,0,0,0-2,.06c-.52.45-.81.42-1-.32-.08-.3.22-1-.47-.86s-.35.81-.44,1.26V54.6c.38.43.73.45.95-.11.17-.37.4-.6.66-.18.52.82,1.3.63,2,.63l1.26-.72.64-.23a.46.46,0,0,1,.47-.4h0a.48.48,0,0,1,.26-.24,1.28,1.28,0,0,0,.4-.25.49.49,0,0,1,.26-.12,2.05,2.05,0,0,0,.29-.75A1.6,1.6,0,0,0,83.72,52.17Z"/><path class="cls-1" d="M54.22,81.17l.09-3.42c.14-.51.35-1,1-1a14.19,14.19,0,0,1,4.55,0c.61.12,1.47.45.56,1.35C58.38,79.21,56.53,80.69,54.22,81.17Z"/><path class="cls-1" d="M94.09,60.44h0L94,60.37a40.28,40.28,0,0,0-6.93-.43,3.21,3.21,0,0,0-2,.43l-.79,1.75a22.41,22.41,0,0,0,10,.17c.21,0,.34-.26.46-.45h0A4.23,4.23,0,0,1,94.09,60.44Z"/><path class="cls-1" d="M95.08,52.23c-1.25-.7-3.07-.32-3.81-2h9.27a3.33,3.33,0,0,0,2-.32,10,10,0,0,1-.94,2.76c-.16-.06-.32-.23-.45-.22C99.1,52.68,97.11,51.85,95.08,52.23Z"/><path class="cls-1" d="M76.77,76.84c-.67-.78-1.57-.39-2.36-.42-1.73-.06-3.46,0-5.2,0V75.14c.08-.42.26-.75.75-.75h6.87c.41,0,.53.34.6.68A3.12,3.12,0,0,1,76.77,76.84Z"/><path class="cls-1" d="M79.53,67.86H74.68a3,3,0,0,0-1.29.19c-.82.44-1.52,1.29-2.56.46l1.82-3c1.54,0,3.09-.49,4.63,0Z"/><path class="cls-1" d="M94.83,62.1c-.06-.09-.1-.18-.16-.27l-.24-.05a29.86,29.86,0,0,1-5.29.35c-1.64-.05-3.28,0-4.92,0l-.78,1.68a3.67,3.67,0,0,1,1.89-.33h10a3,3,0,0,0,.06-.58C95.23,62.63,95,62.37,94.83,62.1Z"/><path class="cls-1" d="M50,64.8c-1.89.66-3.85.27-5.78.39-.55,0-1.3-.28-1.46.65l-.37-.32a11.38,11.38,0,0,1,1.1-3.13c.24-.7.76-.71,1.36-.39A40.2,40.2,0,0,1,50,64.8Z"/><path class="cls-1" d="M76.71,63.15c1.54-1.33,3.32-.54,5-.54a3.31,3.31,0,0,1,.8.2c-.51,1.13-1,2.26-1.52,3.38-.34.73-.71,1-1.34.2C78.72,65.27,77.7,64.23,76.71,63.15Z"/><path class="cls-1" d="M84.15,70.37a1.1,1.1,0,0,1,1-.76h4.92a1,1,0,0,1,.9.67c-.3.25-.58.51-.89.74C86.83,73.5,86.83,73.5,84.15,70.37Z"/><path class="cls-1" d="M93.67,59.39a3.08,3.08,0,0,1-.53-.66.46.46,0,0,1,0-.08l-.27-.19a2.15,2.15,0,0,0-.55-.15,14.28,14.28,0,0,0-2.7-.06c-1.25.07-2.57-.37-3.72.5l-.79,1.66h2.75c2.05.1,4.11.22,6.16.33a2.08,2.08,0,0,0,.07-.39A2.05,2.05,0,0,0,93.67,59.39Z"/><path class="cls-1" d="M52.89,72v2.38a6.55,6.55,0,0,1-5.48,0,3.91,3.91,0,0,1-1-1.69.63.63,0,0,1,.49-1C48.93,71.41,51,71,52.89,72Z"/><path class="cls-1" d="M47.41,74.38h5.48q0,1.36,0,2.72a11.73,11.73,0,0,0-3,1.35A22.3,22.3,0,0,1,47.41,74.38Z"/><path class="cls-1" d="M89.29,11.81c-.84.63-1.8.18-2.69.31a3.87,3.87,0,0,0-.21.55,1.68,1.68,0,0,1-.17,1.09,3.87,3.87,0,0,0,0,.49.65.65,0,0,0,.7.58h5a.65.65,0,0,0,.7-.58A11.8,11.8,0,0,0,89.29,11.81Z"/><path class="cls-1" d="M83.85,60.07c-.12-.84-.78-.65-1.32-.66H78.3a24.61,24.61,0,0,1,4.17-3.07,8.35,8.35,0,0,0,1.82-.17c.7-.1,1.28,0,1,1C84.77,58.09,84.64,59.23,83.85,60.07Z"/><path class="cls-1" d="M54.32,75V73.67a2.83,2.83,0,0,1,3.21-1.8A10.83,10.83,0,0,1,60,72a10.19,10.19,0,0,1,2.53,2,3,3,0,0,1-2.47.85C58.14,74.91,56.23,74.81,54.32,75Z"/><path class="cls-1" d="M98.44,54.75a4.69,4.69,0,0,1-.6,0c-1.74.26-3.73-.76-5.18,1h0c.31.48.62,1,.91,1.47a1.75,1.75,0,0,0,.4.18c2,.19,4,.48,6-.33l.59-1.06C100.26,54.9,99.18,55.1,98.44,54.75Z"/><path class="cls-1" d="M114.85,30a2,2,0,0,1-2,2.15,1.88,1.88,0,0,1-2.11-2,1.9,1.9,0,0,1,1.67-2.1h.33A2,2,0,0,1,114.85,30Z"/><path class="cls-1" d="M84.53,74.61a52.86,52.86,0,0,1-7.15,3.73L79.16,74C81,73.82,82.83,73.3,84.53,74.61Z"/><path class="cls-1" d="M71.89,57h7.49c-1.07.81-2.08,1.69-3.21,2.4C74.62,60.38,73.53,59.75,71.89,57Z"/><path class="cls-1" d="M84.53,74.61c-1.75-.57-3.63.07-5.37-.59l.71-2a3.93,3.93,0,0,1,4,0,7.59,7.59,0,0,1,2,1.86Z"/><path class="cls-1" d="M52.89,72H47.71c-.55,0-1.17-.11-1.28.7a4.75,4.75,0,0,1-1-1.75c.06-.37.24-.63.64-.63,2,0,4-.05,6,0C53.3,70.35,52.78,71.35,52.89,72Z"/><path class="cls-1" d="M49.85,78.43a2.46,2.46,0,0,1,3-1.35c.12.78-.24,1.6.26,2.34,0,.79.05,1.57.07,2.36,0,.52,0,1,.69,1.14l-.34.65A21.81,21.81,0,0,1,49.85,78.43Z"/><path class="cls-1" d="M60,72a2.31,2.31,0,0,1-1.79.3,4,4,0,0,0-3.88,1.37V71.25c.3-1.83.67-2.07,2.77-1.73l1.25.74Z"/><path class="cls-1" d="M60.39,78.1c.11-.31.3-.63-.13-.87-.83-.46-5.19-.08-5.94.52V76.39a1.22,1.22,0,0,1,1.11-1.08,35.92,35.92,0,0,1,5.89,0,1.21,1.21,0,0,1,1,.74C62.7,77.7,61.24,77.6,60.39,78.1Z"/><path class="cls-1" d="M91.91,56.41l0,0c-1.65.26-3.34-.12-5,.26a6,6,0,0,0-.94,2.07l7.2-.06a.52.52,0,0,1,0-.13A15.07,15.07,0,0,0,91.91,56.41Z"/><path class="cls-1" d="M62.37,76c-2.41-.68-4.86-.22-7.29-.26-.25,0-.5.39-.76.6q0-.68,0-1.36c.43-.66,1.08-.67,1.79-.68A25.46,25.46,0,0,0,62.53,74C62.93,74.72,62.25,75.35,62.37,76Z"/><path class="cls-1" d="M95.08,52.23c-.12-.34-.21-.7.34-.65a10.54,10.54,0,0,1,2.6.33,2.26,2.26,0,0,0,2-.09c.88-.49,1.37-.12,1.51.82l-.36,1.65A23.41,23.41,0,0,1,95.08,52.23Z"/><path class="cls-1" d="M99.15,59l-1.71,4c-1.83-.72-2.3-2.3-2.56-4A3.11,3.11,0,0,1,99.15,59Z"/><path class="cls-1" d="M93.66,57a.91.91,0,0,0-.09.21,9.65,9.65,0,0,1,.46.91.52.52,0,0,1,0,.14,5.76,5.76,0,0,1,.45.47.49.49,0,0,1,.12.28,1.53,1.53,0,0,1,.22.35v0a.94.94,0,0,0,.23,0c1.25-1.33,2.68-.6,4.06-.33A5.58,5.58,0,0,0,100,57Z"/><path class="cls-1" d="M90.88,54.75a.47.47,0,0,1,0-.05L90.33,54a3.81,3.81,0,0,0-2.75,1.38l-.28.08-.44,1.26a8.77,8.77,0,0,0,5.12,0s0-.07,0-.11C91.63,56,91.23,55.39,90.88,54.75Z"/><path class="cls-1" d="M69.26,78.78H73.9c.53,0,1.13-.15,1.5.43-.45.23-.89.49-1.34.7C71.21,81.24,71.21,81.24,69.26,78.78Z"/><path class="cls-1" d="M77.29,65.53c-1.54.09-3.09.84-4.63,0a14.37,14.37,0,0,1,.68-1.36c.78-1.27,1.49-1.35,2.53-.29C76.38,64.39,76.82,65,77.29,65.53Z"/><path class="cls-1" d="M60.06,8.4l1.69,1.34a.5.5,0,0,1,0,.68H59a2.59,2.59,0,0,0,1.93.54c-.09.77-.6.83-1.16.82-1.13,0-1.39-1-1.8-1.74A6.52,6.52,0,0,1,60.06,8.4Z"/><path class="cls-1" d="M83.85,72h-4c1-3.31,1.05-3.32,3.45-.8A6.39,6.39,0,0,1,83.85,72Z"/><path class="cls-1" d="M86,53.51a.43.43,0,0,1-.15.31,2.62,2.62,0,0,1-.85.5.44.44,0,0,1-.16,0,.44.44,0,0,1-.41.24h0l-.46.46-.66.66c.95.92,1.87.49,2.79,0l.88-1.29V53.5A2.34,2.34,0,0,0,86,53.51Z"/><path class="cls-1" d="M83.21,55.73a3.25,3.25,0,0,0,2.79,0,3.06,3.06,0,0,1-.74,1.43c-.11-.82-.57-.87-1.18-.53a1.06,1.06,0,0,1-1.49-.14l-.11-.15Z"/><path class="cls-1" d="M62,30.52c.35-.16.51-.73,1.11-.26.82.64,1.79.08,2.68.12,3.44.12,6.87,0,10.3,0,.85,0,1.73.4,2.55-.07s1.65.22,2.52.2c5.77-.09,11.55,0,17.33,0a19.44,19.44,0,0,1,5.05.33,37.61,37.61,0,0,1-5.39,2.45c-6,.23-12,.29-18,0-4-.17-7.87.31-11.81.14-1.8-.08-3.56-.7-5.39-.34a.48.48,0,0,1-.58-.61A3.89,3.89,0,0,0,62,30.52Z"/><path class="cls-1" d="M62.4,32.48c.07.08.15.24.22.24a125.75,125.75,0,0,0,12.73,0c3.62-.31,7.15.38,10.75.15s7.35,0,11,0a1.09,1.09,0,0,1,1.05.4,49.48,49.48,0,0,1-4.82,2.32.93.93,0,0,1-1.21-.07,2.81,2.81,0,0,0-3.25-.27c-2.34,1-4.8.39-7.2.45-2.92.07-5.85-.22-8.78,0s-6-.28-9,0a2.87,2.87,0,0,1-2.54-1.14C60.77,33.41,62.18,33.23,62.4,32.48Z"/><path class="cls-1" d="M61.38,34.57a8.32,8.32,0,0,0,5.27.43c.87-.21,1.88.27,2.82.23,3.43-.16,6.88-.23,10.29-.18,3,0,6.08.1,9.12.21-.26.62-.93,1-1,1.72-.44.9-1.3.79-2.07.81-2,.06-4-.09-6.07-.07-5.36.06-10.73.13-16.09.08-1,0-2.12,0-2.14-1.49Z"/><path class="cls-1" d="M61.53,36.3a1.47,1.47,0,0,0,1.68,1c1.87-.07,3.74.08,5.61,0,3.45-.23,6.9.24,10.34,0,2.33-.18,4.63.09,6.94,0A3.08,3.08,0,0,0,87.91,37a1,1,0,0,1-.64,1.26l-.08,0a24.87,24.87,0,0,1-3.84,1.47,7.62,7.62,0,0,1-2.36.14c-5.54-.11-11.09.25-16.63,0-1.12,0-2.36.11-2.51-1.53A4.29,4.29,0,0,1,61.53,36.3Z"/><path class="cls-1" d="M65.78,48.54c-1.33-.94-1.18-2-.22-3.1a1.1,1.1,0,0,1,1.1-.64c2.81.08,5.64-.3,8.43.29,2,1,4.19,1.55,6.1,2.73a1.93,1.93,0,0,1-1.75.84c-4.39.11-8.78.06-13.18,0A1.49,1.49,0,0,1,65.78,48.54Z"/><path class="cls-1" d="M61.79,38.33a1.68,1.68,0,0,0,1.85,1H80.3a9.33,9.33,0,0,1,3,.39,25.77,25.77,0,0,1-4.86,2,60.39,60.39,0,0,1-9.11.08c-1.4,0-2.81.49-4.19-.08-.65-.51-1.19-1.22-2-1.38A1.48,1.48,0,0,1,61.79,38.33Z"/><path class="cls-1" d="M65.78,48.54a3.76,3.76,0,0,1,2.13-.37H78.38a9,9,0,0,0,2.82-.37,27.47,27.47,0,0,1,4.47,2,9.26,9.26,0,0,1-3,.39H69c-.59,0-1.25-.22-1.77.3A5.45,5.45,0,0,1,65.78,48.54Z"/><path class="cls-1" d="M80.44,46.14l-4.39-1.86c.51-.85,1.35-.85,2-1.15,2.92.23,5.85,0,8.77.1a3.34,3.34,0,0,1,2.41.52,3.71,3.71,0,0,1-.29,2,2.41,2.41,0,0,1-1.72.51A51.51,51.51,0,0,1,80.44,46.14Z"/><path class="cls-1" d="M58.35,32.2c-.35.78-1,.69-1.72.69h-7.2a2.4,2.4,0,0,0-.07.49,2.59,2.59,0,0,1,.23.61l0,.12a2.86,2.86,0,0,1,.07.66h0a2.4,2.4,0,0,0,.81.81,50.15,50.15,0,0,0,8.51.15,1.59,1.59,0,0,0,1.05-.46V34.2C59.56,33.48,58.61,33.13,58.35,32.2Z"/><path class="cls-1" d="M65.13,41.72a51.31,51.31,0,0,1,13.3,0c-3.72,2.49-7.93,1.68-12,1.75C65.33,43.48,65.53,42.32,65.13,41.72Z"/><path class="cls-1" d="M102.26,41.31c-.46.62-1.14.39-1.73.4H90.67A2.84,2.84,0,0,1,94,39C96.74,39.77,99.53,40.26,102.26,41.31Z"/><path class="cls-1" d="M89.26,43.75H79.61c-.56,0-1.31.31-1.53-.61l3.7-1.43c1.8-.35,3.64,0,5.45-.4a2.42,2.42,0,0,1,2.12.76Z"/><path class="cls-1" d="M80.44,46.14c2.82-.71,5.69-.18,8.53-.35v1.85A1.55,1.55,0,0,1,86.71,49C84.53,48.12,82.53,47.11,80.44,46.14Z"/><path class="cls-1" d="M46.79,61.73c.16-.83.86-.72,1.34-.6,1.75.45,3.47,0,5.2,0,.55,0,1.18-.13,1.29.7-.62,2.87-1.48,3.32-4,2A22.08,22.08,0,0,1,46.79,61.73Z"/><path class="cls-1" d="M67.14,52.61a19.14,19.14,0,0,1-7.77,0,5.56,5.56,0,0,1,.71-2c2-.76,4-1,5.85.32A4.75,4.75,0,0,1,67.14,52.61Z"/><path class="cls-1" d="M89.35,42.06c-2.49-.79-5.09.65-7.57-.37,1.85-1.07,3.93-1.63,5.85-2.52.7-.32,1,.12,1.46.46C90,40.36,89.65,41.21,89.35,42.06Z"/><path class="cls-1" d="M65.93,50.87c-1.92-.64-3.9-.18-5.85-.32.45-.9.15-2.06,1.71-2.5C64.53,47.27,64.85,49.51,65.93,50.87Z"/><path class="cls-1" d="M75.09,45.08H67.51a3.27,3.27,0,0,0-2,.33c0-.52.23-.92.77-.91,2.68.06,5.37-.27,8,.19A2.84,2.84,0,0,1,75.09,45.08Z"/><path class="cls-1" d="M57.09,69.56c-1.06.35-2.48.14-2.77,1.73a19.06,19.06,0,0,1,0-2c0-.47-.2-1.07.43-1.31s.94.22,1.31.55S56.73,69.21,57.09,69.56Z"/><path class="cls-1" d="M55.58,63c.84,1.37,2.32.78,3.49,1.14-.75.21-1.49.46-2.25.62-.51.1-1.09.45-1.56-.13S55.26,63.54,55.58,63Z"/><path class="cls-1" d="M49.53,36.62l.63-1.39H60a1.77,1.77,0,0,1-1.52,2h-.29c-2.54.09-5.08,0-7.62,0A1.12,1.12,0,0,1,49.53,36.62Z"/><path class="cls-1" d="M84.45,14.38a1.35,1.35,0,0,1-.84-.85l-.08,0H69a2.26,2.26,0,0,1,1.65,1.65l0,0,11.67,0a2.75,2.75,0,0,0,2.19-.64A1.61,1.61,0,0,0,84.45,14.38Z"/><path class="cls-1" d="M63.45,8.72h4.42a1.77,1.77,0,0,1,0,2.38H64.05c-.53,0-1.17.14-1.28-.68C62.11,9.5,63,9.18,63.45,8.72Z"/><path class="cls-1" d="M71.27,8.72a2,2,0,0,1,2.68.91l0,.09c-.48.79-1.33.65-2.15.74.27.89,1.09.43,1.53.74-1.28,1.1-1.74.5-2.78-.81C70.12,9.57,70.66,9.13,71.27,8.72Z"/><path class="cls-1" d="M67.87,11.1V8.72c0-.49,0-1,.68-1a1,1,0,0,1,.17.75c0,1,.44.58.85.27h0c.48-.28.85-.14.7.4s.13,1.33,0,2c.08.3.16.9-.27.57-.69-.52-1.16-1.06-1.8,0Z"/><path class="cls-1" d="M76,8.72l-.68,1.7c-.52.21-.11,1-.81,1.2-.37-.6-.15-1.27-.21-1.89C74.26,8.34,75.32,8.81,76,8.72Z"/><path class="cls-1" d="M63.45,8.72c0,.65-.9,1-.68,1.7-.53.21-.11,1-.7,1.19-.5-.3-.24-.79-.32-1.19V9.74C61.68,8.34,62.73,8.81,63.45,8.72Z"/><path class="cls-1" d="M70.25,11.1c-.88-.61,0-1.71-.68-2.38.57-.74,1.13.08,1.7,0l-.68,1.7A.7.7,0,0,1,70.25,11.1Z"/><path class="cls-1" d="M69.53,8.72a1.47,1.47,0,0,1-.83.81c-.36-.62-.11-1.24-.19-1.83C69,8,68.83,8.78,69.53,8.72Z"/><path class="cls-1" d="M93.73,53c-.87-.31-1.89-1.31-2.58-.64s.63,1.38.78,2.24q.33.56.68,1.1h.18c.89.17,1.53-1.08,2.32-.63,1.26.72,2.24-.07,3.34-.28C96.87,54.15,95.31,53.52,93.73,53Z"/><path class="cls-1" d="M90.33,54a9.06,9.06,0,0,1-2.8,1.34,6.77,6.77,0,0,1,.67-1.51C89,52.88,89.73,52.6,90.33,54Z"/><path class="cls-1" d="M74.72,8.63h-.48v3h9.48a1.5,1.5,0,0,0,0-3H74.24a1.5,1.5,0,0,0,0,3h.48C76.65,11.72,76.65,8.71,74.72,8.63Z"/><path class="cls-1" d="M73.9,8.44l-.82-.06v3h1.31v-3h-14a1.5,1.5,0,0,0,0,3h14a1.5,1.5,0,0,0,0-3H73.08c-2,0-1.9,2.85,0,3l.82.06C75.83,11.59,75.82,8.59,73.9,8.44Z"/><path class="cls-1" d="M60.34,11.38a1.5,1.5,0,1,0-1.5-1.5A1.5,1.5,0,0,0,60.34,11.38Z"/><path class="cls-1" d="M59.81,9.33a5.35,5.35,0,0,1-1,.36l.36.1h.1c.2-.3-.21-.73-.51-.51s-1.53,1.06-.93,1.6c.25.22.73.19,1,.22.53,0,1.05.09,1.58.11l-.27-.64a4.83,4.83,0,0,1-1,0A1.91,1.91,0,0,1,58,10.35l.19.32q-.17.21,0,.08a1.31,1.31,0,0,1,.27-.1,2.24,2.24,0,0,1,.56-.07.38.38,0,0,0,0-.75,2.34,2.34,0,0,0-1.42.4.49.49,0,0,0,.06.81,2.88,2.88,0,0,0,1.51.28c.4,0,1.15.14,1.43-.22a.38.38,0,0,0-.27-.64l-1.12-.06a3.08,3.08,0,0,1-1.09-.13l.17.22v.22a2.61,2.61,0,0,1,.79-.77l-.51-.51a.64.64,0,0,0,0,.9l0,0c.37.24,1-.16,1.34-.29s.25-.89-.2-.72Z"/><path class="cls-1" d="M68.81,7.49h-1a.38.38,0,0,0-.32.56c.21.36.61.28,1,.27h1.69a.38.38,0,0,0,0-.75h-1.1a5.26,5.26,0,0,1-1.1,0l.22.17V7.67l-.32.56h1c.48,0,.48-.77,0-.75Z"/></svg>