<svg id="logo" data-name="Слой 1" xmlns="http://www.w3.org/2000/svg" viewBox="0 0 138 128.5"><defs><style>.cls-1{fill:#03b3d9;}.cls-2{fill:#dd9d64;}.cls-3{fill:#da9b69;}.cls-4{fill:#d7996d;}.cls-5{fill:#e09f5f;}.cls-6{fill:#e898c0;}.cls-7{fill:#e6a554;}.cls-8{fill:#16265f;}.cls-9{fill:#c98d85;}.cls-10{fill:#172660;}.cls-11{fill:#f0ad44;}.cls-12{fill:#d6986f;}.cls-13{fill:#e4a358;}.cls-14{fill:#bf8695;}.cls-15{fill:#c68b89;}.cls-16{fill:#b57ea5;}.cls-17{fill:#d39674;}.cls-18{fill:#bc839a;}.cls-19{fill:#c2888f;}.cls-20{fill:#b8809f;}.cls-21{fill:#e2a15c;}.cls-22{fill:#f8b239;}.cls-23{fill:#af79af;}.cls-24{fill:#e9a750;}.cls-25{fill:#b27bab;}.cls-26{fill:#fbb534;}.cls-27{fill:#06b4d9;}.cls-28{fill:#b67ea4;}.cls-29{fill:#ab76b5;}.cls-30{fill:#a874ba;}.cls-31{fill:#a873bb;}.cls-32{fill:#e3a259;}.cls-33{fill:#9d6bcc;}.cls-34{fill:#a672bf;}.cls-35{fill:#f4af3f;}.cls-36{fill:#cd917e;}.cls-37{fill:#eba84d;}.cls-38{fill:#c28890;}.cls-39{fill:#ab76b6;}.cls-40{fill:#9f6cca;}.cls-41{fill:#bc839b;}.cls-42{fill:#a16ec5;}.cls-43{fill:#a16fc7;}.cls-44{fill:#c98e85;}.cls-45{fill:#b8819f;}.cls-46{fill:#cc9080;}.cls-47{fill:#e898c1;}.cls-48{fill:#ae78b1;}.cls-49{fill:#af79b0;}.cls-50{fill:#9464db;}.cls-51{fill:#eeab48;}.cls-52{fill:#8a5ced;}.cls-53{fill:#9b69cf;}.cls-54{fill:#d0937a;}.cls-55{fill:#b27caa;}.cls-56{fill:#8458f2;}.cls-57{fill:#a773bd;}.cls-58{fill:#9a69d2;}.cls-59{fill:#d0947b;}.cls-60{fill:#b17baa;}.cls-61{fill:#875af1;}.cls-62{fill:#9f6dca;}.cls-63{fill:#9b69d0;}.cls-64{fill:#9767d6;}.cls-65{fill:#8e5fe6;}.cls-66{fill:#9868d5;}.cls-67{fill:#9a69d1;}.cls-68{fill:#af7aa7;}.cls-69{fill:#8d5fe8;}.cls-70{fill:#a672bd;}.cls-71{fill:#b67fa4;}.cls-72{fill:#9161e0;}.cls-73{fill:#a470c1;}.cls-74{fill:#a370c5;}.cls-75{fill:#a370c4;}.cls-76{fill:#9867d5;}.cls-77{fill:#a974ba;}.cls-78{fill:#9564db;}.cls-79{fill:#9163e1;}.cls-80{fill:#eeab49;}.cls-81{fill:#ab77b7;}.cls-82{fill:#9464dc;}.cls-83{fill:#ae79b1;}.cls-84{fill:#faaca4;}.cls-85{fill:#9263e1;}.cls-86{fill:#ac78b5;}.cls-87{fill:#9565db;}.cls-88{fill:#9766d6;}.cls-89{fill:#8e61ea;}.cls-90{fill:#9767d7;}.cls-91{fill:#8f60e3;}.cls-92{fill:#ac77b6;}.cls-93{fill:#9262df;}.cls-94{fill:#b07da6;}.cls-95{fill:#a975bb;}.cls-96{fill:#ac77b5;}.cls-97{fill:#af7ab1;}.cls-98{fill:#8d60eb;}.cls-99{fill:#a271c8;}.cls-100{fill:#edab40;}.cls-101{fill:#9867d7;}.cls-102{fill:#ae7bac;}.cls-103{fill:#b07cb4;}.cls-104{fill:#d39574;}.cls-105{fill:#cd907f;}.cls-106{fill:#c98e84;}.cls-107{fill:#c68b8a;}.cls-108{fill:#c08695;}.cls-109{fill:#cf927a;}.cls-110{fill:#c3898f;}.cls-111{fill:#c58b8c;}.cls-112{fill:#c28891;}.cls-113{fill:#bd849a;}.cls-114{fill:#a672c0;}.cls-115{fill:#b47ea6;}.cls-116{fill:#c58b8d;}.cls-117{fill:#b881a2;}.cls-118{fill:#c0899a;}.cls-119{fill:#9c6cd3;}.cls-120{fill:#a674c6;}.cls-121{fill:#cd917f;}.cls-122{fill:#eeaa49;}.cls-123{fill:#f3af3f;}.cls-124{fill:#edab3d;}.cls-125{fill:#edaa3d;}.cls-126{fill:#f4b03c;}.cls-127{fill:#b07bab;}.cls-128{fill:#b17fac;}</style></defs><title>logo1</title><path class="cls-1" d="M45.07 108c-2.35 4.44-4.69 8.89-7.06 13.32-.27.51-.32 1.28-1.12 1.35s-1-.8-1.31-1.34c-2.4-4.47-4.77-9-7.36-13.88a127.21 127.21 0 0 0-1.66 13.24c-.15 2.15-.1 2.15-2.24 1.94L27 104.57c.08-.56-.19-1.31.79-1.42s1.3.33 1.68 1.07c2.38 4.56 4.81 9.1 7.23 13.65.2.38.46.73.8 1.29l6.21-11.67c.61-1.15 1.22-2.3 1.82-3.45.27-.53.57-1 1.28-.87s.59.71.66 1.17l2 14.46c.09.67.2 1.34.33 2 .43 2.06.41 2.06-1.76 1.94-.7 0-.94-.2-1-1A106.48 106.48 0 0 0 45.07 108z"/><path class="cls-2" d="M102.56 23.3a7.73 7.73 0 0 1 2 2.49c-.21.93-1 .81-1.62.81-6.29 0-12.57.08-18.86-.08-3.55-.09-7.14.26-10.69.07-5.11-.28-10.21.06-15.31 0s-10.19 0-15.28.06c-.8 0-1.88.33-2.21-.93a14.26 14.26 0 0 1 2.75-2.36 98.2 98.2 0 0 0 10.66.18c9.22 0 18.45.09 27.67 0 6.98-.1 13.94.31 20.89-.24z"/><path class="cls-3" d="M40.58 25.67c.4.58 1 .41 1.55.41h60.65c.6 0 1.26.22 1.77-.3a3.81 3.81 0 0 1 1.07 2 2.85 2.85 0 0 1-2.24.53c-6.28 0-12.57.13-18.85-.06-2.2-.07-4.37.16-6.56.06-4.72-.22-9.43.08-14.15 0-7.63-.13-15.26.11-22.9 0-.84 0-2 .43-2.38-.92a7 7 0 0 1 2.04-1.72z"/><path class="cls-4" d="M38.5 27.38c.46.62 1.14.4 1.73.4 5.9 0 11.79.12 17.68 0 2-.06 3.94.11 5.91.09 5-.07 10.06 0 15.09 0h26.66a1.06 1.06 0 0 1 .35 1c-.22 1.16-1.2.88-1.89.88q-11.29.06-22.58 0h-16c-1.36 0-2.71-.09-4.07-.19-7.24.42-14.48.15-21.72.18-1 0-2.27.36-2.54-1.23a3.81 3.81 0 0 1 1.38-1.13z"/><path class="cls-5" d="M101.13 21.73a5.34 5.34 0 0 0-1.84-.23c-3 0-6 .07-9 0-1.62 0-3.24-.46-4.85.12a1.78 1.78 0 0 0-.62.27 1.8 1.8 0 0 1-1.46 1.24h-.13a2 2 0 0 1-.23 0h-.12A1.84 1.84 0 0 1 81 21.65a.68.68 0 0 0-.63.12 5.56 5.56 0 0 1-2.82.41H58.03c-1.26 0-2.5-.58-3.68-.37a43.53 43.53 0 0 1-9.64.19l-1.38 1.31c.18 1 1 .72 1.62.72 3.67-.11 7.35-.2 11-.11 7.16.18 14.31 0 21.47.1 2.87 0 5.77-.18 8.62-.09 5.09.12 10.17 0 15.25.12.58 0 1.18.06 1.27-.75a4.43 4.43 0 0 0-1.43-1.57z"/><path class="cls-6" d="M36.29 79.18a5.08 5.08 0 0 1-5.19-5v-.33a5.35 5.35 0 0 1 5.14-5.26 5.44 5.44 0 0 1 5.4 5.4 5.12 5.12 0 0 1-5.08 5.16z"/><path class="cls-7" d="M96.4 17.35a7.34 7.34 0 0 1-3.76-.35 1.28 1.28 0 0 0-1.14 0 8 8 0 0 1-3.39.44H73.58a9.17 9.17 0 0 1-2.68-.24 1.19 1.19 0 0 0-.45-.06 2.42 2.42 0 0 1-4.1.3 1.4 1.4 0 0 0-.68 0c-5.19-.07-10.38.21-15.57-.17l-2.34 2.11c.29 1 1.14.74 1.82.79.85.06 1.68-.14 2.54-.14 9.61.34 19.23.17 28.84.09l.36-.13a1.81 1.81 0 0 1 1.55-.78H83a1.81 1.81 0 0 1 1.69 1l.38.2a9.41 9.41 0 0 0 3.85-.21 3.4 3.4 0 0 1 2 0 19.73 19.73 0 0 0 6.21.18c.63 0 1.37-.19 1.37-1.13a7.52 7.52 0 0 0-2.1-1.9z"/><path class="cls-8" d="M104.89 107.79h-.08a7.73 7.73 0 0 0-8 7.46v.31a7.58 7.58 0 0 0 7.69 7.44c4.71 0 7.93-3 8-7.4v-.59a7.44 7.44 0 0 0-7.61-7.22zm5.62 10.21a4.55 4.55 0 0 1-1.24 2.13 5.74 5.74 0 0 1-1.4 1.21l-.11.05a5.06 5.06 0 0 1-5.62.19l-.25-.12a7 7 0 0 1-3.25-6.57 7.49 7.49 0 0 1 1.06-3.64l.05-.07a5 5 0 0 1 2-2.39 4.15 4.15 0 0 1 .91-.38 5.29 5.29 0 0 1 3.18-.19 4.24 4.24 0 0 1 .81.32 6.67 6.67 0 0 1 3.26 3c0 .07.06.15.09.23a8.86 8.86 0 0 1 .51 6.23zM91 116.13c2.49-1.83 3.11-3.27 2.49-5.2S91.3 108 88.3 108h-4.54a73.37 73.37 0 0 1 .11 13.59c0 .37-.4 1 .34 1.07a5.16 5.16 0 0 0 2.33-.1c.59-.23 0-1 0-1.51.07-1 0-2 0-3 0-.49-.4-1.28.39-1.43s1.65-.31 2.23.69c.74 1.2 1.73 2.25 2.39 3.49v.1a3.32 3.32 0 0 0 4.45 1.67c-2.09-1.93-3.4-4.3-5-6.44zm-4.14-.54a1.09 1.09 0 0 1-1.24-1.24 17.35 17.35 0 0 0 .18-4.28 1.14 1.14 0 0 1 0-.58.76.76 0 0 1 .56-.71 1 1 0 0 1 .36-.1c2.25-.15 5.6.6 5.57 3.46-.05 2.59-3.29 3.8-5.45 3.45z"/><path class="cls-9" d="M60.38 37.2a8.26 8.26 0 0 0-.34-3 1.38 1.38 0 0 0-.52.88 1.68 1.68 0 0 1-1.69 1.58c-2.73 0-5.48.38-8.2-.25a5.22 5.22 0 0 1-.85.32l-.23.16-.14.08-.22.1-.25.08h-.19a2.61 2.61 0 0 1-1 0l-.23-.06-.2-.06-.32-.1h-.08a2.15 2.15 0 0 1-.29-.22 5.23 5.23 0 0 1-.64-.26c-.09-.07-.22 0-.33 0-2.6.6-5.24.15-7.86.33-1.41.1-2.51-.19-3.06-1.63a6.35 6.35 0 0 0-.22 3.17c0 1.38.71 1.86 2 1.86q11.25.08 22.5 0c2.36-.06 2.68-.62 2.36-2.98z"/><path class="cls-10" d="M81.32 111.25a4.12 4.12 0 0 0-4.08-3.19c-1.91-.07-3.82 0-5.74 0a97 97 0 0 1 .13 13.58c0 .35-.45.9.18 1a5.61 5.61 0 0 0 2.35 0c.76-.22.15-1 .15-1.45a22.17 22.17 0 0 0-.12-2.87c-.08-.88.22-1.23 1.13-1.16a6.29 6.29 0 0 0 4-1.1 4.43 4.43 0 0 0 2-4.81zM79.57 113c-.58 2.57-3.64 3.47-6 3.08a1 1 0 0 1-.73-1 3.65 3.65 0 0 1 .08-.69 16.32 16.32 0 0 1 .13-1.89v-1.47a3 3 0 0 1 .07-1.35 1 1 0 0 1 1-1.1c1.61-.06 2.94-.18 4.25 1a3.51 3.51 0 0 1 1.2 3.42z"/><path class="cls-11" d="M84.22 11.68a2.25 2.25 0 0 0 0-.35 3.43 3.43 0 0 0-2.71-.69c-1.91-.09-3.84.21-5.74-.23-.53-.06-1.24.25-1.31-.68a.88.88 0 0 0-.46-.15c-.59.13-1.15.4-1.74.55-.79.2-.84.63-.21 1.14.07.06 0 .24.12.06s0 .25-.11.06c-.56-.13-.69-.84-1.26-1-.32 0-.46.3-.64.52a15.55 15.55 0 0 0-2.63-.09c-1.5-.32-3 .13-4.5-.4-.4-.28-.87.61-1.24-.08a3 3 0 0 0-2-.21c-.32 0-.7.12-.77.51s.23.58.55.73h.11c.13-.18 0 .23-.12.06-.81-.11-.8-1.2-1.58-1.36h-.3c-.76.45-1.83.56-1.93 1.81l-.42.65c-.34.83.3 1 .83 1.09a10.46 10.46 0 0 0 2.19.12c2.81.09 5.66-.18 8.45.17a2.35 2.35 0 0 1 1.54-.53 2.32 2.32 0 0 1 1.63.61h9.69a10.7 10.7 0 0 0 3.67-.26 2.25 2.25 0 0 0 .26-.26 1.56 1.56 0 0 1 .63-1.79z"/><path class="cls-12" d="M61.72 29.16h42.34c.64 0 1.37.26 1.91-.37a1.72 1.72 0 0 1 .33 1.07l-2.76 1A11 11 0 0 1 100 31c-5.88 0-11.77.12-17.65 0-5.35-.13-10.7.22-16-.09-1.44-.09-2.9.23-4.31-.32l-.67-.6c-.28-.48.13-.63.35-.83z"/><path class="cls-13" d="M81.49 19.76v-.14H49.58c-.59 0-1.25.23-1.78-.28a6.38 6.38 0 0 0-1.8 1.57c.32 1.14 1.29.92 2.06.92 3 .16 6 0 9 0 6.94.08 13.88 0 20.82 0a7.5 7.5 0 0 0 2.52-.21 1.72 1.72 0 0 0 .57-.38 2.1 2.1 0 0 1 .52-1.48z"/><path class="cls-14" d="M57.64 43.78l.36 2a1.62 1.62 0 0 1-1.72.84c-6.45-.06-12.9.1-19.36 0a3 3 0 0 1-2.32-1.19l-.34-1.7a2.84 2.84 0 0 1 2.24-.49h18.87a3.12 3.12 0 0 1 2.27.54z"/><path class="cls-15" d="M33.57 38.37c.23 1 .75 1.38 1.87 1.36 7.46-.07 14.91 0 22.37 0 2.34 0 2.51-.18 2.57-2.45 1.18 2.37-.45 3.44-2.09 4.49a1.6 1.6 0 0 1-1.08.42c-7.09.1-14.18.15-21.27.09-.78 0-1.61 0-2.06-.84a10.63 10.63 0 0 1-.31-3.07z"/><path class="cls-16" d="M58.69 50.64a6.83 6.83 0 0 1-1 2.75 109.58 109.58 0 0 0-14.07-.1c-2.14.09-4.29-.33-6.43.07a8.23 8.23 0 0 1-1-2.78c.23-1 1.11-.84 1.77-.84 6.22 0 12.44-.09 18.67 0 .78 0 1.76-.25 2.06.9z"/><path class="cls-17" d="M56.38 30H37.87a4 4 0 0 0-2.48.51 3.54 3.54 0 0 0-1 2.06 2.76 2.76 0 0 0 2.23.54c2.68.11 5.34-.09 8 .11a6.51 6.51 0 0 1 .92-.29 2.16 2.16 0 0 1 .33-.28 2.16 2.16 0 0 1 .36-.19h.15a2.31 2.31 0 0 1 .3-.09 2.7 2.7 0 0 1 .54-.05 2.77 2.77 0 0 1 .57.06h.09a2.35 2.35 0 0 1 .41.14 2.17 2.17 0 0 1 .38.24 2.19 2.19 0 0 1 .34.33 6.51 6.51 0 0 1 .8.31c2.19.11 4.38 0 6.57 0 .8 0 1.78 0 1.87-1.18l.44-1.65c-.59-.72-1.48-.57-2.31-.57z"/><path class="cls-18" d="M34.6 45.48a5.32 5.32 0 0 0 3.22.69c4.28-.19 8.55.12 12.84-.19a45.63 45.63 0 0 1 5.37.18 3.29 3.29 0 0 0 2-.35c.44.49.85 1 1.33 1.48a1.05 1.05 0 0 1 .13 1.48l-.13.13c-6.46-.36-12.92 0-19.38-.18-1.5 0-3.07.29-4.5-.49a10.73 10.73 0 0 1-.88-2.75z"/><path class="cls-19" d="M33.88 41.41a3.33 3.33 0 0 0 2 .33c5.65 0 11.29.12 16.93-.07a37.81 37.81 0 0 1 5.51.07l-.65 2h-23.4a7.31 7.31 0 0 1-.39-2.33z"/><path class="cls-20" d="M35.5 48.23h22.57c.55 0 1.19-.14 1.31.69a3.94 3.94 0 0 1-.65 1.74c-.36-.51-.9-.39-1.4-.39H37.5c-.44 0-.92-.09-1.25.34a5.64 5.64 0 0 1-.75-2.38z"/><path class="cls-21" d="M46 20.94c1.12.83 2.4.36 3.6.37h31.18l.09.11-.06.13c-.1 1-.75 1.12-1.57 1.12-7.58 0-15.17.19-22.75-.1-3.22-.12-6.41.48-9.61.11-.79-.09-1.6 0-2.17-.7z"/><path class="cls-22" d="M74.3 9.77H74c-.83-.35-1.58-1-2.59-.7-.57 0-1.12-.28-1.7-.13a1.68 1.68 0 0 1-.42 0c-.36 0-.55-.36-.84-.51-.4.13-.58.58-1 .64a21 21 0 0 1-3.62.12 2.08 2.08 0 0 0-2 .59A1.6 1.6 0 0 1 60 8.4a14.61 14.61 0 0 1 3.41-2.31c5.66.08 11.32.17 17 0a13.61 13.61 0 0 1 3.41 2c.8 1.28-.41 1.12-.94 1.16-2.14.14-4.29.07-6.44 0a2.83 2.83 0 0 0-2.14.52z"/><path class="cls-23" d="M57 55.37l-.6 1.71a3.55 3.55 0 0 1-2.27.47h-12a19.4 19.4 0 0 0-3.19.21A8.9 8.9 0 0 1 37.83 55c.38-.83 1.15-.85 1.88-.84 5.08 0 10.15-.11 15.22 0 .84.04 1.91-.16 2.07 1.21z"/><path class="cls-24" d="M94.75 16.25a2.56 2.56 0 0 0-1.44-.4c-6.88-.25-13.75 0-20.62-.09a4.58 4.58 0 0 0-1.67.16 2.21 2.21 0 0 0-.31.19 2.75 2.75 0 0 1-.24 1l.07.14c.19 1 1 .72 1.63.72h17.66c.55 0 1.18.13 1.61-.33s.63-.17 1.11 0c1.21.44 2.65.83 3.85-.27z"/><path class="cls-25" d="M57 55.37c-.31-.71-.94-.73-1.58-.7-3.83.17-7.66-.18-11.5.19a14.68 14.68 0 0 1-3.39-.15 3.79 3.79 0 0 0-2.64.33 3 3 0 0 1-.63-1.68c1-1.4 2.51-.63 3.77-.68s2.64.05 4 0c3.67-.14 7.35 0 11-.05.7 0 1.38 0 1.72.77a4.22 4.22 0 0 1-.75 1.97z"/><path class="cls-26" d="M80.42 6.08c-.09.6-.53.63-1 .63H64.74a1.33 1.33 0 0 1-1.3-.59c5.65-3.73 11.31-3.31 16.98-.04z"/><path class="cls-27" d="M53.6 120.59a55.88 55.88 0 0 0 0-11.37c-.16-1.76 1-1 1.72-1.15.92-.16 1.12.11 1.08 1.17q-.21 6.11 0 12.24c0 1.12-.17 1.36-1.19 1.29s-1.93.19-1.56-1.33a3.11 3.11 0 0 0-.05-.85z"/><path class="cls-28" d="M85.63 49.86c1.5.56 1.59.92.57 2.4a.63.63 0 0 1-.43.19c-1.87.57-3.82-.42-5.69.29-.22.08-.58.08-.63-.08-.56-1.68-1.08 0-1.61 0a72.2 72.2 0 0 1-8 .12 2.43 2.43 0 0 1-1.43-.48h-.26l-1-1.73c.1-.78.76-.79 1.27-.79 5.76-.04 11.49-.27 17.21.08z"/><path class="cls-29" d="M38.92 57.74c.3-.48.56-1 1.27-.91 4.88.41 9.77.11 14.65.21h1.52a8.28 8.28 0 0 1-1.05 2.8 9.61 9.61 0 0 0-2.81-.27c-3.3.16-6.6 0-9.9 0a5.76 5.76 0 0 0-2.6.53 7.42 7.42 0 0 1-1.08-2.36z"/><path class="cls-30" d="M39.95 60.09c-.05-.71.26-1 1-1a34.18 34.18 0 0 1 5.67-.09c2.41.33 4.75-.28 7.11.08.63.1 1.42-.2 1.58.8a3.92 3.92 0 0 1-.73 2 5.76 5.76 0 0 0-3.33 0c-.93.34-1.76-.27-2.66-.23a5.66 5.66 0 0 0-1.84.16c-1.18-.3-2.19-1.6-3.33-1.23s-.88 2.16-1.77 3a9.6 9.6 0 0 1-1.7-3.49z"/><path class="cls-12" d="M58.77 30.55l-23.35-.07a4.66 4.66 0 0 1 1.79-2c.45 1 1.33.7 2.08.71h22.43l-.39.8a2.57 2.57 0 0 0-2.56.56z"/><path class="cls-31" d="M56.31 60.8a3.92 3.92 0 0 1 .69-1.71 2.9 2.9 0 0 1 2-.54h10.5a2.89 2.89 0 0 1 2.46.86c1.31 1.62 1.2 1.79-1.45 2.34-.75-.5-1.55-.08-2.32-.09h-9.65c-.81-.03-1.74.11-2.23-.86z"/><path class="cls-32" d="M98.52 19.25c-.22.17-.42.5-.65.5-2.45.31-4.91.61-7.33-.22-.23-.08-.38-.43-.71-.21-1.58 1-3.33.59-5 .68a1.77 1.77 0 0 0-.09.29 2.26 2.26 0 0 1 .14 1.37 1.78 1.78 0 0 0 .24.36 41 41 0 0 1 5.34 0c2.69.06 5.39 0 8.09 0 .87 0 1.8.3 2.62-.26a10.53 10.53 0 0 0-2.65-2.51z"/><path class="cls-14" d="M90.25 45.75a7 7 0 0 1 .35-3.07 6.17 6.17 0 0 0 2.94.58H102a2.83 2.83 0 0 1 2.23.52 5.72 5.72 0 0 1-.66 2.38 2.18 2.18 0 0 1-1.57.51c-3.15 0-6.31.12-9.46-.06-.81-.05-1.86.27-2.29-.86z"/><path class="cls-33" d="M58.76 69.58l-2.26-2c-.35-.3-.68-.59-.57-1.12s.64-.52 1.06-.59l2-.33c2.61.1 5.23-.38 7.85 0 .89.15 1.79-.28 2.69-.1.53.1 1.35 0 1.06 1-.54.46-.23 1.43-1 1.74a29.41 29.41 0 0 1-5.71.17 7.55 7.55 0 0 0-4.81 1.14z"/><path class="cls-34" d="M63.46 63.43a.5.5 0 0 1 .32-.16h.83a.51.51 0 0 1 .24 0l5.74-1.41c-.22-.91-1-.6-1.52-.6H58.31a3.36 3.36 0 0 1-2-.33 5.55 5.55 0 0 0-.72 2.2c-.32.86.27 1.18.89 1.18a6.32 6.32 0 0 0 2.6 0l4.33-.74z"/><path class="cls-35" d="M83.82 8c.32.92-.38.7-.82.7h-7c-.44.48-1.17.85-.69 1.75.2 1 1 .67 1.62.67 2.43.17 4.9-.34 7.3.39l.12.06a1.52 1.52 0 0 1 .59-.12 1.36 1.36 0 0 1 1.34.91c.15 0 .3.11.45.15.89-.06 2 .51 2.51-.71A20.8 20.8 0 0 0 83.82 8z"/><path class="cls-36" d="M44.95 35.52a2.82 2.82 0 0 1-.09-.53 2 2 0 0 0-.8-.74 62.29 62.29 0 0 0-9.14-.13 1.6 1.6 0 0 0-1.07.46l-.06.61c-.25 1.69.4 2.29 2.15 2.16 2.31-.13 4.63 0 7 0a2.47 2.47 0 0 0 2.06-.71 2 2 0 0 0 .1-.61 2.59 2.59 0 0 1-.15-.51z"/><path class="cls-37" d="M92.64 14.29c-2.15.09-4.32.4-6.44-.24H86a1.38 1.38 0 0 1-1.07.46 1.46 1.46 0 0 1-.73-.18c-1.86.66-3.8.28-5.7.38-2.58.14-5.18-.29-7.74.27l-.16.14a2.85 2.85 0 0 1 .11 1l.11.09h23.93a4.81 4.81 0 0 0-2.11-1.92z"/><path class="cls-38" d="M104.2 43.78H92c-.82 0-1.49 0-1.44-1.11l.05-.94a3.09 3.09 0 0 1 2.26-.53c3.11 0 6.22 0 9.33.12l2.65.47z"/><path class="cls-39" d="M72 59.41a5 5 0 0 0-2.16-.32H57a3.45 3.45 0 0 1 .62-1.71 1.85 1.85 0 0 1 1.58-.83q4.9-.12 9.81 0a1.9 1.9 0 0 1 1.19.45 7.47 7.47 0 0 1 1.8 2.41z"/><path class="cls-40" d="M82.08 68.36c-1.24-1.39.38-2.13.71-3.16a2.14 2.14 0 0 1 1.46-.25c3 .12 6.07 0 9.1.08.76 0 1.73-.24 2.06.89a6.58 6.58 0 0 1-2 2.39 56.91 56.91 0 0 0-11.33.05z"/><path class="cls-41" d="M90.25 45.75c4.41.82 8.86.23 13.29.41a4.21 4.21 0 0 1-.61 2.06 2.71 2.71 0 0 1-1.75.51h-9.31a1.9 1.9 0 0 1-1.9-.85 4.13 4.13 0 0 1 .28-2.13z"/><path class="cls-42" d="M96.32 63.75a3.11 3.11 0 0 1-.44-.35 2.62 2.62 0 0 1-.27-.19.46.46 0 0 1-.1-.13c-3.44-.21-6.87-.08-10.31-.08a2 2 0 0 0-1.75.83 2.6 2.6 0 0 0-.65 1.37 8.94 8.94 0 0 0 2.81.36h8.08c.59 0 1.25-.23 1.73.36l1.31-1.75a.5.5 0 0 0 0-.06 2.21 2.21 0 0 1-.41-.36z"/><path class="cls-24" d="M65.9 16a1.36 1.36 0 0 0-.41-.24c-1.86-.07-3.72 0-5.57 0-2.81.06-5.63-.26-8.42.23a3.87 3.87 0 0 0-1.35 1.23c.35.8 1.06.7 1.74.7H64.6c.56 0 1.15.18 1.56-.39q0-.15.06-.3A2.74 2.74 0 0 1 65.9 16z"/><path class="cls-43" d="M65.14 63.94a.43.43 0 0 1-.26.16c-.3.06-.6.1-.9.14a.41.41 0 0 1-.17 0h-.06a.42.42 0 0 1-.23 0 3.51 3.51 0 0 1-.79.32l-3.77 1c1 .21 2.08.83 2.91.57 2.46-.76 4.9.42 7.32-.19.47-.12 1.18-.26 1.36.57 1.14-1.09 1.58-2.55 2.64-4.09z"/><path class="cls-44" d="M105.2 40.61c-1.34.35-2.51-.38-3.74-.66-2.51-.58-5-1.31-7.45-2-.71-.2-1.63-.47-.32-1.25 3.18.24 6.37 0 9.55.12a3 3 0 0 1 2.38.53z"/><path class="cls-45" d="M90 47.87a3.45 3.45 0 0 0 2 .34h11l-.45 1.7a1.47 1.47 0 0 1-1.39.79 74.59 74.59 0 0 1-9.57-.13 2.23 2.23 0 0 1-.52-.38C91 49.27 89.5 49 90 47.87z"/><path class="cls-46" d="M105.62 37.33H95.19c-.55 0-1.3.3-1.5-.63l5.1-2.33c1.55.62 3.18.36 4.78.43a3.15 3.15 0 0 1 2.38.49 3.48 3.48 0 0 1-.33 2.04z"/><path class="cls-47" d="M23.63 61.42a2.7 2.7 0 0 1 2.71 2.65 2.78 2.78 0 0 1-2.6 2.82A2.71 2.71 0 0 1 20.88 64a2.58 2.58 0 0 1 2.57-2.59z"/><path class="cls-48" d="M70.21 57H59.73a4.31 4.31 0 0 0-2.14.33A8.69 8.69 0 0 1 58.4 55a2.15 2.15 0 0 1 1.24-.47 76.45 76.45 0 0 1 8.1.1 2.31 2.31 0 0 1 1.11.38A4.32 4.32 0 0 1 70.21 57z"/><path class="cls-49" d="M71.86 57.07a7.93 7.93 0 0 1-1.7-2.39 2.26 2.26 0 0 1 1.84-.53c1.94 0 3.89-.1 5.82.07 1.53-.29 3-.36 4.31.78l-2.79 2a11.56 11.56 0 0 1-7.48.07z"/><path class="cls-50" d="M78.09 73.15a3.86 3.86 0 0 1-.7 2 30.16 30.16 0 0 0-8.22 0c-.16-.85-1.46-1.37-.72-2.49a2.68 2.68 0 0 1 2.14-1.18c2 0 4.07-.07 6.1 0 .96.09 1.86.31 1.4 1.67z"/><path class="cls-51" d="M67.57 13.55a8.88 8.88 0 0 0-2.83-.37h-8c-.57 0-1.32.29-1.49-.66a9.49 9.49 0 0 0-2 2c.15 1.08 1 .91 1.7.91 3.48 0 7 .14 10.48 0l.62-.2a2.26 2.26 0 0 1 1.52-1.68z"/><path class="cls-52" d="M57.91 80.82c1.46-.82 2.94-1.62 4.39-2.45a1 1 0 0 1 1.36.16 2.45 2.45 0 0 0 2.34.65c1.8-.6 2.67.39 3.43 1.71-.32.79-1 .8-1.71.82q-4 .09-8 0c-.67-.03-1.44-.07-1.81-.89z"/><path class="cls-53" d="M82.08 68.36a2 2 0 0 1 1.77-.77h8.25c.56 0 1.17-.09 1.27.72a7.43 7.43 0 0 1-2.39 2 21 21 0 0 0-6.85.08z"/><path class="cls-54" d="M44.86 34.41a2.64 2.64 0 0 1 .4-1.12v-.34a4.1 4.1 0 0 0-2.13-.39h-8.68a4 4 0 0 0-.56 2.06H44.5a1.39 1.39 0 0 0 .36-.21z"/><path class="cls-55" d="M78.38 54.67h-8.23a8.45 8.45 0 0 1-1.71-2.37h9.94a1.77 1.77 0 0 1 0 2.37z"/><path class="cls-56" d="M53.89 83l.36-.4 1-.34c2.9-.3 5.8 0 8.7-.08.64 0 1.37.16 1.48 1l-2.71 1.07c-.36.47-.92.14-1.35.35-2.27.35-4.54.71-6.79-.11-.56.15-.81-.21-1-.63v-.27c-.24-.37.05-.49.31-.59z"/><path class="cls-57" d="M76.68 63.18c-1-1.45-.57-2.51 1.6-3.79a7.94 7.94 0 0 1 4.41-.39c.57.06 1.48 0 1.14 1.13l-1.33 2.71c-1.93.45-3.91-.13-5.82.34z"/><path class="cls-58" d="M44.65 70c2.17-1.51 4.77-1.93 7.23-2.64.8-.23 1.33.66 1.32 1.59q0 5.27-.07 10.53c-1.08-.53-.61-1.54-.73-2.37a19.82 19.82 0 0 1 0-2.67v-2.3c0-1-.59-1.33-1.49-1.32a40.41 40.41 0 0 0-5.51.18z"/><path class="cls-59" d="M105.95 35.28h-5.66c-.7 0-1.37 0-1.5-.92L106.1 31c.4 1 .06 1.81.23 2.62z"/><path class="cls-60" d="M68.85 55H58.4a8.68 8.68 0 0 1 .93-2.38 41.25 41.25 0 0 1 7.77 0l.74.63z"/><path class="cls-61" d="M65.45 83.19a2.77 2.77 0 0 0-2.36-.64c-2.61.06-5.24.35-7.82-.34a10.55 10.55 0 0 1 2.64-1.4 3.66 3.66 0 0 0 2.29.37c3.08-.17 6.18.38 9.23-.31 1.13 1-.52.81-.59 1.29-.38.67-1.17.38-1.7.71-.59-.03-1.07.52-1.69.32z"/><path class="cls-62" d="M49.92 64.83l2.4 1.08L44 68.69l-1.34-2.81c-.33-1.12.6-1.09 1.17-1.11a30.17 30.17 0 0 1 6.09.06z"/><path class="cls-63" d="M59 69.54A1.92 1.92 0 0 1 60.82 68c2.9 0 5.82-.44 8.7.2-.48.5-.31 1.36-1 1.76a2.53 2.53 0 0 1-1.73.5 61.08 61.08 0 0 1-6.84-.13z"/><path class="cls-64" d="M78.09 73.15c0-.71-.22-1.16-1.07-1.14h-6.9c-.7 0-1.11.5-1.68.68a6.74 6.74 0 0 1 1.41-2.37c1.4-1 3-.82 4.58-.83a26.36 26.36 0 0 1 3.38.05c.57.07 1.49-.09 1.25 1-.46.83-.24 1.9-.97 2.61z"/><path class="cls-37" d="M66 15.15a.68.68 0 0 0-.11-.24h-11c-.59 0-1.27.22-1.73-.4L51.5 16a2.52 2.52 0 0 0 .79.24h12.3a4.16 4.16 0 0 0 1.11-.33h.06a.68.68 0 0 0 .16-.17 2.81 2.81 0 0 1 .08-.59z"/><path class="cls-65" d="M76.74 76.87c-.33.86-.07 2.07-1.37 2.38-1.41 0-2.81.13-4.22.08a3.39 3.39 0 0 1-1.93-.53c-1.39-.76-.24-1.58 0-2.37 2.31-1 4.69-.56 7.06-.3a.57.57 0 0 1 .46.74z"/><path class="cls-66" d="M60 70.36c.7-.71 1.58-.35 2.38-.37 2.06-.05 4.12 0 6.18 0-.46.83-.73 2.09-1.42 2.39-1.09.47-2.44.2-3.65.74-.5.22-1.09-.66-1.6-1.1z"/><path class="cls-67" d="M79.06 70.56a.62.62 0 0 0-.66-.56c-2.5.22-5-.52-7.51.43-.27.11-.65-.07-1-.12a4.55 4.55 0 0 1 1-1.71 15 15 0 0 1 6.66-1.14 6.93 6.93 0 0 1 2 .44c.61 1.02-.05 1.82-.49 2.66z"/><path class="cls-68" d="M83.69 52.2c-.5.32-.85.42-1.31 0l-.05-.06a1.41 1.41 0 0 0-2 .06c-.52.45-.81.42-1-.32-.08-.3.22-1-.47-.86s-.35.81-.44 1.26v2.36c.38.43.73.45.95-.11.17-.37.4-.6.66-.18.52.82 1.3.63 2 .63l1.26-.72.64-.23a.46.46 0 0 1 .47-.4.48.48 0 0 1 .26-.24 1.28 1.28 0 0 0 .4-.25.49.49 0 0 1 .26-.12 2.05 2.05 0 0 0 .29-.75 1.6 1.6 0 0 0-1.92-.07z"/><path class="cls-69" d="M54.19 81.2l.09-3.42c.14-.51.35-1 1-1a14.19 14.19 0 0 1 4.55 0c.61.12 1.47.45.56 1.35-2.04 1.11-3.89 2.59-6.2 3.07z"/><path class="cls-70" d="M94.06 60.47L94 60.4a40.28 40.28 0 0 0-6.95-.4 3.21 3.21 0 0 0-2 .43l-.79 1.75a22.41 22.41 0 0 0 10 .17c.21 0 .34-.26.46-.45a4.23 4.23 0 0 1-.66-1.43z"/><path class="cls-71" d="M95.05 52.26c-1.25-.7-3.07-.32-3.81-2h9.27a3.33 3.33 0 0 0 2-.32 10 10 0 0 1-.94 2.76c-.16-.06-.32-.23-.45-.22-2.05.23-4.04-.6-6.07-.22z"/><path class="cls-72" d="M76.74 76.87c-.67-.78-1.57-.39-2.36-.42-1.73-.06-3.46 0-5.2 0v-1.28c.08-.42.26-.75.75-.75h6.87c.41 0 .53.34.6.68a3.12 3.12 0 0 1-.66 1.77z"/><path class="cls-33" d="M79.5 67.89h-4.85a3 3 0 0 0-1.29.19c-.82.44-1.52 1.29-2.56.46l1.82-3c1.54 0 3.09-.49 4.63 0z"/><path class="cls-73" d="M94.8 62.13c-.06-.09-.1-.18-.16-.27l-.24-.05a29.86 29.86 0 0 1-5.29.35c-1.64-.05-3.28 0-4.92 0l-.78 1.68a3.67 3.67 0 0 1 1.89-.33h10a3 3 0 0 0 .06-.58c-.16-.27-.36-.53-.56-.8z"/><path class="cls-74" d="M49.92 64.83c-1.89.66-3.85.27-5.78.39-.55 0-1.3-.28-1.46.65l-.37-.32a11.38 11.38 0 0 1 1.1-3.13c.24-.7.76-.71 1.36-.39a40.2 40.2 0 0 1 5.15 2.8z"/><path class="cls-75" d="M76.68 63.18c1.54-1.33 3.32-.54 5-.54a3.31 3.31 0 0 1 .8.2C82 64 81.48 65.1 81 66.22c-.34.73-.71 1-1.34.2-.97-1.12-1.99-2.16-2.98-3.24z"/><path class="cls-76" d="M84.12 70.4a1.1 1.1 0 0 1 1-.76H90a1 1 0 0 1 .9.67c-.3.25-.58.51-.89.74-3.21 2.48-3.21 2.48-5.89-.65z"/><path class="cls-77" d="M93.64 59.42a3.08 3.08 0 0 1-.53-.66.46.46 0 0 1 0-.08l-.27-.19a2.15 2.15 0 0 0-.55-.15 14.28 14.28 0 0 0-2.7-.06c-1.25.07-2.57-.37-3.72.5l-.79 1.66h2.75c2.05.1 4.11.22 6.16.33a2.08 2.08 0 0 0 .07-.39 2.05 2.05 0 0 0-.42-.96z"/><path class="cls-78" d="M52.86 72v2.38a6.55 6.55 0 0 1-5.48 0 3.91 3.91 0 0 1-1-1.69.63.63 0 0 1 .49-1c2.03-.25 4.05-.64 5.99.31z"/><path class="cls-79" d="M47.38 74.41h5.48v2.72a11.73 11.73 0 0 0-3 1.35 22.3 22.3 0 0 1-2.48-4.07z"/><path class="cls-80" d="M89.26 11.84c-.84.63-1.8.18-2.69.31a3.87 3.87 0 0 0-.21.55 1.68 1.68 0 0 1-.17 1.09 3.87 3.87 0 0 0 0 .49.65.65 0 0 0 .7.58h5a.65.65 0 0 0 .7-.58 11.8 11.8 0 0 0-3.33-2.44z"/><path class="cls-81" d="M83.82 60.1c-.12-.84-.78-.65-1.32-.66h-4.23a24.61 24.61 0 0 1 4.17-3.07 8.35 8.35 0 0 0 1.82-.17c.7-.1 1.28 0 1 1-.52.92-.65 2.06-1.44 2.9z"/><path class="cls-82" d="M54.29 75.06V73.7a2.83 2.83 0 0 1 3.21-1.8 10.83 10.83 0 0 1 2.5.1 10.19 10.19 0 0 1 2.53 2 3 3 0 0 1-2.47.85c-1.95.09-3.86-.01-5.77.21z"/><path class="cls-83" d="M98.41 54.78a4.69 4.69 0 0 1-.6 0c-1.74.26-3.73-.76-5.18 1 .31.48.62 1 .91 1.47a1.75 1.75 0 0 0 .4.18c2 .19 4 .48 6-.33l.59-1.06c-.3-1.11-1.38-.91-2.12-1.26z"/><path class="cls-84" d="M114.82 30.07a2 2 0 0 1-2 2.15 1.88 1.88 0 0 1-2.11-2 1.9 1.9 0 0 1 1.67-2.1h.33a2 2 0 0 1 2.11 1.95z"/><path class="cls-85" d="M84.5 74.64a52.86 52.86 0 0 1-7.15 3.73l1.78-4.31c1.8-.21 3.67-.73 5.37.58z"/><path class="cls-86" d="M71.86 57.07h7.49c-1.07.81-2.08 1.69-3.21 2.4-1.55.94-2.64.31-4.28-2.4z"/><path class="cls-87" d="M84.5 74.64c-1.75-.57-3.63.07-5.37-.59l.71-2a3.93 3.93 0 0 1 4 0 7.59 7.59 0 0 1 2 1.86z"/><path class="cls-88" d="M52.86 72h-5.18c-.55 0-1.17-.11-1.28.7a4.75 4.75 0 0 1-1-1.75c.06-.37.24-.63.64-.63 2 0 4-.05 6 0 1.23.06.71 1.06.82 1.68z"/><path class="cls-89" d="M49.82 78.46a2.46 2.46 0 0 1 3-1.35c.12.78-.24 1.6.26 2.34 0 .79.05 1.57.07 2.36 0 .52 0 1 .69 1.14l-.34.65a21.81 21.81 0 0 1-3.68-5.14z"/><path class="cls-90" d="M59.95 72a2.31 2.31 0 0 1-1.79.3 4 4 0 0 0-3.88 1.37v-2.39c.3-1.83.67-2.07 2.77-1.73l1.25.74z"/><path class="cls-91" d="M60.36 78.13c.11-.31.3-.63-.13-.87-.83-.46-5.19-.08-5.94.52v-1.36a1.22 1.22 0 0 1 1.11-1.08 35.92 35.92 0 0 1 5.89 0 1.21 1.21 0 0 1 1 .74c.38 1.65-1.08 1.55-1.93 2.05z"/><path class="cls-92" d="M91.87 56.44c-1.65.26-3.34-.12-5 .26a6 6 0 0 0-.94 2.07l7.2-.06a.52.52 0 0 1 0-.13 15.07 15.07 0 0 0-1.26-2.14z"/><path class="cls-93" d="M62.34 76.08c-2.41-.68-4.86-.22-7.29-.26-.25 0-.5.39-.76.6v-1.36c.43-.66 1.08-.67 1.79-.68A25.46 25.46 0 0 0 62.5 74c.4.75-.28 1.38-.16 2.08z"/><path class="cls-94" d="M95.05 52.26c-.12-.34-.21-.7.34-.65a10.54 10.54 0 0 1 2.6.33 2.26 2.26 0 0 0 2-.09c.88-.49 1.37-.12 1.51.82l-.36 1.65a23.41 23.41 0 0 1-6.09-2.06z"/><path class="cls-95" d="M99.12 59.08l-1.71 4c-1.83-.72-2.3-2.3-2.56-4a3.11 3.11 0 0 1 4.27 0z"/><path class="cls-96" d="M93.63 57a.91.91 0 0 0-.09.21 9.65 9.65 0 0 1 .46.91.52.52 0 0 1 0 .14 5.76 5.76 0 0 1 .45.47.49.49 0 0 1 .12.28 1.53 1.53 0 0 1 .22.35.94.94 0 0 0 .23 0c1.25-1.33 2.68-.6 4.06-.33a5.58 5.58 0 0 0 .86-2.03z"/><path class="cls-97" d="M90.85 54.78a.47.47 0 0 1 0-.05L90.3 54a3.81 3.81 0 0 0-2.75 1.38l-.28.08-.44 1.26a8.77 8.77 0 0 0 5.12 0v-.11c-.35-.61-.75-1.19-1.1-1.83z"/><path class="cls-98" d="M69.23 78.81h4.64c.53 0 1.13-.15 1.5.43-.45.23-.89.49-1.34.7-2.85 1.33-2.85 1.33-4.8-1.13z"/><path class="cls-99" d="M77.26 65.56c-1.54.09-3.09.84-4.63 0a14.37 14.37 0 0 1 .68-1.36c.78-1.27 1.49-1.35 2.53-.29.51.51.95 1.09 1.42 1.65z"/><path class="cls-100" d="M60 8.43l1.69 1.34a.5.5 0 0 1 0 .68H59a2.59 2.59 0 0 0 1.93.54c-.09.77-.6.83-1.16.82-1.13 0-1.39-1-1.8-1.74A6.52 6.52 0 0 1 60 8.43z"/><path class="cls-101" d="M83.82 72h-4c1-3.31 1.05-3.32 3.45-.8a6.39 6.39 0 0 1 .55.8z"/><path class="cls-102" d="M85.94 53.54a.43.43 0 0 1-.15.31 2.62 2.62 0 0 1-.85.5.44.44 0 0 1-.16 0 .44.44 0 0 1-.41.24l-.46.46-.66.66c.95.92 1.87.49 2.79 0l.88-1.29v-.92a2.34 2.34 0 0 0-.98.04z"/><path class="cls-103" d="M83.18 55.76a3.25 3.25 0 0 0 2.79 0 3.06 3.06 0 0 1-.74 1.43c-.11-.82-.57-.87-1.18-.53a1.06 1.06 0 0 1-1.49-.14l-.11-.15z"/><path class="cls-104" d="M62 30.55c.35-.16.51-.73 1.11-.26.82.64 1.79.08 2.68.12 3.44.12 6.87 0 10.3 0 .85 0 1.73.4 2.55-.07s1.65.22 2.52.2c5.77-.09 11.55 0 17.33 0a19.44 19.44 0 0 1 5.05.33 37.61 37.61 0 0 1-5.39 2.45c-6 .23-12 .29-18 0-4-.17-7.87.31-11.81.14-1.8-.08-3.56-.7-5.39-.34a.48.48 0 0 1-.58-.61 3.89 3.89 0 0 0-.37-1.96z"/><path class="cls-54" d="M62.37 32.51c.07.08.15.24.22.24a125.75 125.75 0 0 0 12.73 0c3.62-.31 7.15.38 10.75.15s7.35 0 11 0a1.09 1.09 0 0 1 1.05.4 49.48 49.48 0 0 1-4.82 2.32.93.93 0 0 1-1.21-.07 2.81 2.81 0 0 0-3.25-.27c-2.34 1-4.8.39-7.2.45-2.92.07-5.85-.22-8.78 0s-6-.28-9 0a2.87 2.87 0 0 1-2.54-1.14c-.58-1.15.83-1.33 1.05-2.08z"/><path class="cls-105" d="M61.35 34.6a8.32 8.32 0 0 0 5.27.43c.87-.21 1.88.27 2.82.23 3.43-.16 6.88-.23 10.29-.18 3 0 6.08.1 9.12.21-.26.62-.93 1-1 1.72-.44.9-1.3.79-2.07.81-2 .06-4-.09-6.07-.07-5.36.06-10.73.13-16.09.08-1 0-2.12 0-2.14-1.49z"/><path class="cls-106" d="M61.5 36.33a1.47 1.47 0 0 0 1.68 1c1.87-.07 3.74.08 5.61 0 3.45-.23 6.9.24 10.34 0 2.33-.18 4.63.09 6.94 0a3.08 3.08 0 0 0 1.81-.33 1 1 0 0 1-.64 1.26h-.08a24.87 24.87 0 0 1-3.84 1.47 7.62 7.62 0 0 1-2.32.17c-5.54-.11-11.09.25-16.63 0-1.12 0-2.36.11-2.51-1.53a4.29 4.29 0 0 1-.36-2.04z"/><path class="cls-41" d="M65.75 48.57c-1.33-.94-1.18-2-.22-3.1a1.1 1.1 0 0 1 1.1-.64c2.81.08 5.64-.3 8.43.29 2 1 4.19 1.55 6.1 2.73a1.93 1.93 0 0 1-1.75.84c-4.39.11-8.78.06-13.18 0a1.49 1.49 0 0 1-.48-.12z"/><path class="cls-107" d="M61.76 38.36a1.68 1.68 0 0 0 1.85 1h16.66a9.33 9.33 0 0 1 3 .39 25.77 25.77 0 0 1-4.86 2 60.39 60.39 0 0 1-9.11.08c-1.4 0-2.81.49-4.19-.08-.65-.51-1.19-1.22-2-1.38a1.48 1.48 0 0 1-1.35-2.01z"/><path class="cls-45" d="M65.75 48.57a3.76 3.76 0 0 1 2.13-.37h10.47a9 9 0 0 0 2.82-.37 27.47 27.47 0 0 1 4.47 2 9.26 9.26 0 0 1-3 .39h-13.7c-.59 0-1.25-.22-1.77.3a5.45 5.45 0 0 1-1.42-1.95z"/><path class="cls-108" d="M80.41 46.17L76 44.31c.51-.85 1.35-.85 2-1.15 2.92.23 5.85 0 8.77.1a3.34 3.34 0 0 1 2.41.52 3.71 3.71 0 0 1-.29 2 2.41 2.41 0 0 1-1.72.51 51.51 51.51 0 0 1-6.76-.12z"/><path class="cls-109" d="M58.32 32.23c-.35.78-1 .69-1.72.69h-7.2a2.4 2.4 0 0 0-.07.49 2.59 2.59 0 0 1 .23.61v.12a2.86 2.86 0 0 1 .07.66 2.4 2.4 0 0 0 .81.81 50.15 50.15 0 0 0 8.51.15A1.59 1.59 0 0 0 60 35.3v-1.07c-.47-.72-1.42-1.07-1.68-2z"/><path class="cls-110" d="M65.1 41.75a51.31 51.31 0 0 1 13.3 0c-3.72 2.49-7.93 1.68-12 1.75-1.1.01-.9-1.15-1.3-1.75z"/><path class="cls-111" d="M102.23 41.34c-.46.62-1.14.39-1.73.4h-9.86A2.84 2.84 0 0 1 94 39c2.71.8 5.5 1.29 8.23 2.34z"/><path class="cls-112" d="M89.23 43.78h-9.65c-.56 0-1.31.31-1.53-.61l3.7-1.43c1.8-.35 3.64 0 5.45-.4a2.42 2.42 0 0 1 2.12.76z"/><path class="cls-113" d="M80.41 46.17c2.82-.71 5.69-.18 8.53-.35v1.85A1.55 1.55 0 0 1 86.68 49c-2.18-.85-4.18-1.86-6.27-2.83z"/><path class="cls-114" d="M46.76 61.76c.16-.83.86-.72 1.34-.6 1.75.45 3.47 0 5.2 0 .55 0 1.18-.13 1.29.7-.62 2.87-1.48 3.32-4 2a22.08 22.08 0 0 1-3.83-2.1z"/><path class="cls-115" d="M67.11 52.64a19.14 19.14 0 0 1-7.77 0 5.56 5.56 0 0 1 .71-2c2-.76 4-1 5.85.32a4.75 4.75 0 0 1 1.21 1.68z"/><path class="cls-116" d="M89.32 42.09c-2.49-.79-5.09.65-7.57-.37 1.85-1.07 3.93-1.63 5.85-2.52.7-.32 1 .12 1.46.46.94.73.56 1.58.26 2.43z"/><path class="cls-117" d="M65.9 50.9c-1.92-.64-3.9-.18-5.85-.32.45-.9.15-2.06 1.71-2.5 2.74-.78 3.06 1.46 4.14 2.82z"/><path class="cls-118" d="M75.06 45.11h-7.58a3.27 3.27 0 0 0-2 .33c0-.52.23-.92.77-.91 2.68.06 5.37-.27 8 .19a2.84 2.84 0 0 1 .81.39z"/><path class="cls-119" d="M57.06 69.59c-1.06.35-2.48.14-2.77 1.73a19.06 19.06 0 0 1 0-2c0-.47-.2-1.07.43-1.31s.94.22 1.31.55.67.68 1.03 1.03z"/><path class="cls-120" d="M55.55 63.07c.84 1.37 2.32.78 3.49 1.14-.75.21-1.49.46-2.25.62-.51.1-1.09.45-1.56-.13s0-1.13.32-1.63z"/><path class="cls-121" d="M49.5 36.65l.63-1.39H60a1.77 1.77 0 0 1-1.52 2h-.29c-2.54.09-5.08 0-7.62 0a1.12 1.12 0 0 1-1.07-.61z"/><path class="cls-122" d="M84.42 14.41a1.35 1.35 0 0 1-.84-.85H69a2.26 2.26 0 0 1 1.65 1.65h11.67a2.75 2.75 0 0 0 2.19-.64 1.61 1.61 0 0 0-.09-.16z"/><path class="cls-123" d="M63.42 8.75h4.42a1.77 1.77 0 0 1 0 2.38H64c-.53 0-1.17.14-1.28-.68-.64-.92.21-1.24.7-1.7z"/><path class="cls-124" d="M71.24 8.75a2 2 0 0 1 2.68.91v.09c-.48.79-1.33.65-2.15.74.27.89 1.09.43 1.53.74-1.28 1.1-1.74.5-2.78-.81-.43-.82.11-1.26.72-1.67z"/><path class="cls-125" d="M67.84 11.13V8.75c0-.49 0-1 .68-1a1 1 0 0 1 .17.75c0 1 .44.58.85.27.48-.28.85-.14.7.4s.13 1.33 0 2c.08.3.16.9-.27.57-.69-.52-1.16-1.06-1.8 0zM76 8.75l-.68 1.7c-.52.21-.11 1-.81 1.2-.37-.6-.15-1.27-.21-1.89-.07-1.39.99-.92 1.7-1.01z"/><path class="cls-124" d="M63.42 8.75c0 .65-.9 1-.68 1.7-.53.21-.11 1-.7 1.19-.5-.3-.24-.79-.32-1.19v-.68c-.07-1.4.98-.93 1.7-1.02z"/><path class="cls-126" d="M70.22 11.13c-.88-.61 0-1.71-.68-2.38.57-.74 1.13.08 1.7 0l-.68 1.7a.7.7 0 0 1-.34.68zM69.5 8.75a1.47 1.47 0 0 1-.83.81c-.36-.62-.11-1.24-.19-1.83.52.27.32 1.08 1.02 1.02z"/><path class="cls-127" d="M93.7 53c-.87-.31-1.89-1.31-2.58-.64s.63 1.38.78 2.24q.33.56.68 1.1h.18c.89.17 1.53-1.08 2.32-.63 1.26.72 2.24-.07 3.34-.28-1.58-.61-3.14-1.24-4.72-1.79z"/><path class="cls-128" d="M90.3 54a9.06 9.06 0 0 1-2.8 1.34 6.77 6.77 0 0 1 .67-1.51c.76-.92 1.53-1.2 2.13.17z"/><path class="cls-35" d="M74.69 8.66h-.48v3h9.48a1.5 1.5 0 0 0 0-3h-9.48a1.5 1.5 0 0 0 0 3h.48c1.93.09 1.93-2.92 0-3z"/><path class="cls-35" d="M73.87 8.47l-.82-.06v3h1.31v-3h-14a1.5 1.5 0 0 0 0 3h14a1.5 1.5 0 0 0 0-3h-1.31c-2 0-1.9 2.85 0 3l.82.06c1.93.15 1.92-2.85 0-3z"/><path class="cls-35" d="M60.31 11.41a1.5 1.5 0 1 0-1.5-1.5 1.5 1.5 0 0 0 1.5 1.5z"/><path class="cls-35" d="M59.78 9.36a5.35 5.35 0 0 1-1 .36l.36.1h.1c.2-.3-.21-.73-.51-.51s-1.53 1.06-.93 1.6c.25.22.73.19 1 .22.53 0 1.05.09 1.58.11l-.27-.64a4.83 4.83 0 0 1-1 0 1.91 1.91 0 0 1-1.11-.22l.19.32q-.17.21 0 .08a1.31 1.31 0 0 1 .27-.1 2.24 2.24 0 0 1 .56-.07.38.38 0 0 0 0-.75 2.34 2.34 0 0 0-1.42.4.49.49 0 0 0 .06.81 2.88 2.88 0 0 0 1.51.28c.4 0 1.15.14 1.43-.22a.38.38 0 0 0-.27-.64l-1.12-.06a3.08 3.08 0 0 1-1.09-.13l.17.22v.22a2.61 2.61 0 0 1 .79-.77l-.51-.51a.64.64 0 0 0 0 .9c.37.24 1-.16 1.34-.29s.25-.89-.2-.72z"/><path class="cls-22" d="M68.78 7.52h-1a.38.38 0 0 0-.32.56c.21.36.61.28 1 .27h1.69a.38.38 0 0 0 0-.75h-1.1a5.26 5.26 0 0 1-1.1 0l.22.17V7.7l-.32.56h1c.48 0 .48-.77 0-.75z"/></svg>